<?xml version="1.0" standalone="yes"?>
<svg xmlns="http://www.w3.org/2000/svg" width="3922" height="3137">
<path style="fill:#01435b; stroke:none;" d="M0 0L0 3137L3921 3137L3921 0L0 0z"/>
<path style="fill:#4c4e93; stroke:none;" d="M3921 0L3921 3137L3922 3137L3922 907L3922 263L3922 77L3922 24L3921 0M1376 1096L1377 1096C1379.07 1089.63 1380.88 1078.33 1386.21 1073.89C1389.69 1070.98 1398.67 1072.67 1403 1072.67L1449 1072.67L1509.67 1072.67C1518.37 1072.67 1529.83 1074.62 1538.18 1072.07C1561.29 1065.02 1575.72 1041.52 1583 1020C1590.5 1033.18 1594.43 1047.1 1606.01 1057.83C1622.83 1073.4 1638.45 1072.67 1659.67 1072.67C1684.76 1072.67 1712.17 1069.54 1737 1073L1704 1131L1778.33 1130.67L1925.67 1130.67L1981 1130.67L2008 1130C2003.09 1146.68 1988.93 1163.6 1979.33 1178C1975.22 1184.18 1969.43 1190.6 1968 1198L1990 1211C1986.23 1217.63 1975.71 1220.79 1970 1226.09C1958.16 1237.07 1950.95 1250.81 1946 1266L1945 1266L1935 1243L1933 1243L1884 1305L1961.67 1304.67L2031 1305L2019 1317C2034.89 1305.94 2049.11 1291.81 2064 1279.41C2098.85 1250.41 2133.17 1220.78 2168 1191.75C2183.56 1178.78 2198.69 1162.46 2216 1151.93C2236.5 1139.45 2259.32 1147.74 2279.99 1139.41C2287.95 1136.2 2294.53 1123.32 2300.17 1117C2314.92 1100.45 2330.36 1084.5 2347 1069.84C2352.68 1064.84 2368.17 1056.17 2370.29 1048.91C2372.1 1042.74 2364 1031.56 2361.58 1026C2351.29 1002.44 2337.23 980.582 2323.41 959C2263.88 865.98 2166.52 790.616 2062 755.003C1996.99 732.853 1928.82 721.028 1860 724.039C1692.56 731.367 1534.53 819.211 1441.33 959C1414.14 999.795 1387.16 1047.78 1376 1096z"/>
<path style="fill:#98accc; stroke:none;" d="M1889 875L1888 878L1889 878L1889 875z"/>
<path style="fill:#fbfdfe; stroke:none;" d="M1889 876C1884.05 890.532 1874.87 900.095 1862 908C1873.9 917.961 1882.9 925.137 1889 940L1890 940C1894.77 925.997 1903.58 916.639 1916 909L1916 907C1901.39 900.695 1897.17 888.152 1889 876z"/>
<path style="fill:#98accc; stroke:none;" d="M1890.33 877.667L1890.67 878.333L1890.33 877.667M1887.33 879.667L1887.67 880.333L1887.33 879.667M1891 880L1892 881L1891 880M1886.33 881.667L1886.67 882.333L1886.33 881.667M1892 882L1893 883L1892 882M1885 884L1886 885L1885 884M1893 884L1894 885L1893 884M1884 886L1885 887L1884 886M1894 886L1895 887L1894 886M1883.33 887.667L1883.67 888.333L1883.33 887.667M1895 888L1896 889L1895 888M1882 889L1883 890L1882 889M1896 889L1897 890L1896 889M1881 891L1882 892L1881 891M1897 891L1898 892L1897 891M1880 892L1881 893L1880 892M1898 892L1899 893L1898 892M1879 893L1880 894L1879 893M1899 894L1900 895L1899 894M1878 895L1879 896L1878 895M1900 895L1901 896L1900 895M1877 896L1878 897L1877 896M1901 896L1902 897L1901 896M1876 897L1877 898L1876 897M1902 897L1903 898L1902 897M1875 898L1876 899L1875 898M1903 898L1904 899L1903 898M1874 899L1875 900L1874 899M1904 899L1905 900L1904 899M1873 900L1874 901L1873 900M1905 900L1906 901L1905 900M1872 901L1873 902L1872 901M1906 901L1907 902L1906 901M1870 902L1871 903L1870 902M1907.67 902.333L1908.33 902.667L1907.67 902.333M1869 903L1870 904L1869 903M1909 903L1910 904L1909 903M1867 904L1868 905L1867 904M1910.67 904.333L1911.33 904.667L1910.67 904.333M1866 905L1867 906L1866 905M1912 905L1913 906L1912 905M1864 906L1865 907L1864 906M1914 906L1915 907L1914 906M1862 907L1863 908L1862 907M1916.33 907.667L1916.67 908.333L1916.33 907.667M1861 908L1862 909L1861 908M1863 909L1864 910L1863 909M1915 909L1916 910L1915 909M1865 910L1866 911L1865 910M1913 910L1914 911L1913 910M1867 911L1868 912L1867 911M1911 911L1912 912L1911 911M1868 912L1869 913L1868 912M1910 912L1911 913L1910 912M1870 913L1871 914L1870 913M1908 913L1909 914L1908 913M1871 914L1872 915L1871 914M1907 914L1908 915L1907 914M1872 915L1873 916L1872 915M1906 915L1907 916L1906 915M1873 916L1874 917L1873 916M1904.67 916.333L1905.33 916.667L1904.67 916.333M1903 917L1904 918L1903 917M1902 918L1903 919L1902 918M1901 919L1902 920L1901 919M1877 920L1878 921L1877 920M1878 921L1879 922L1878 921M1900 921L1901 922L1900 921M1879 922L1880 923L1879 922M1899 922L1900 923L1899 922M1880 923L1881 924L1880 923M1898 923L1899 924L1898 923M1897 924L1898 925L1897 924M1881 925L1882 926L1881 925M1882 926L1883 927L1882 926M1896 926L1897 927L1896 926M1895.33 927.667L1895.67 928.333L1895.33 927.667M1883 928L1884 929L1883 928M1884.33 929.667L1884.67 930.333L1884.33 929.667M1894 929L1895 930L1894 929M1885.33 931.667L1885.67 932.333L1885.33 931.667M1893 931L1894 932L1893 931M1892.33 933.667L1892.67 934.333L1892.33 933.667M1886 934L1887 935L1886 934M1891.33 935.667L1891.67 936.333L1891.33 935.667M1887.33 936.667L1887.67 937.333L1887.33 936.667M1888.33 938.667L1888.67 939.333L1888.33 938.667M1890.33 938.667L1890.67 939.333L1890.33 938.667M1889 940L1890 941L1889 940M1583 1020L1582 1023L1583 1020z"/>
<path style="fill:#fbfdfe; stroke:none;" d="M1583 1022C1573.74 1041.79 1562.73 1064.8 1540 1072C1544.6 1079.16 1555.77 1083.73 1562 1090C1572.04 1100.12 1577.31 1112.22 1583 1125L1601.3 1093L1627 1073C1614.57 1065.74 1603.73 1058.17 1595.52 1046C1590.43 1038.46 1587.95 1029.46 1583 1022z"/>
<path style="fill:#30aacf; stroke:none;" d="M1584 1022L1585 1023L1584 1022z"/>
<path style="fill:#4c4e93; stroke:none;" d="M2093 1294L2094 1294C2099.11 1283.28 2109.01 1284.67 2119 1284.67C2136.96 1284.67 2160.73 1288.76 2178 1284C2180.1 1286.4 2182.9 1286.4 2185 1284C2196.14 1287.01 2214.82 1283.66 2226 1281L2227 1301L2228 1301L2228.99 1285.84L2243.67 1284.67L2285 1285C2288 1271.18 2285.65 1254 2298.86 1243.84C2301.57 1241.75 2306.45 1242.67 2309.67 1242.67L2337 1242.67C2372.63 1242.67 2411.74 1238.09 2447 1243L2436 1254C2491.65 1217.19 2530.69 1153.21 2553.58 1092C2559.67 1075.7 2564.64 1058.87 2568.87 1042C2570.34 1036.17 2573.11 1026.11 2564 1025.19C2556.05 1024.39 2545.1 1031.7 2538 1034.86C2522 1041.98 2506.25 1049.81 2491 1058.42C2483.47 1062.68 2475.29 1069.61 2467.17 1072.37C2462.9 1073.82 2456.46 1070.28 2452 1069.74C2441.98 1068.55 2431.3 1072.08 2424.04 1079.09C2408.67 1093.93 2409.51 1120.25 2427 1133.07C2435.6 1139.38 2444.74 1140 2455 1140L2455 1141C2448.71 1143.94 2443.01 1147.56 2436 1148.67C2418.72 1151.42 2405.87 1138.47 2398 1125C2366.97 1146.86 2339.59 1182.36 2317.58 1213C2309.37 1224.44 2298.01 1236.78 2293 1250L2292 1250C2306.1 1181.85 2364.06 1122.68 2413 1077.09C2428.17 1062.96 2444.43 1050.06 2461 1037.63C2466.05 1033.84 2477.03 1029.15 2476 1022C2422.98 1039.94 2378.03 1075.97 2339 1115C2328.24 1125.76 2318.42 1137.27 2308.75 1149C2304.52 1154.13 2300.56 1161.7 2294.96 1165.4C2290.15 1168.58 2281.58 1167.7 2276 1168.09C2263.18 1168.99 2248.27 1168.69 2236 1172.75C2226.75 1175.81 2219.23 1183.76 2212 1190C2200.77 1199.69 2189.29 1209.1 2178 1218.73C2157.12 1236.53 2135.88 1253.92 2115 1271.73C2108.37 1277.38 2094.46 1284.97 2093 1294z"/>
<path style="fill:#98accc; stroke:none;" d="M1584 1023L1585 1027L1586 1027L1584 1023M1581.33 1024.67L1581.67 1025.33L1581.33 1024.67z"/>
<path style="fill:#30aacf; stroke:none;" d="M1585 1024L1586 1025L1585 1024M1580 1026L1581 1027L1580 1026z"/>
<path style="fill:#98accc; stroke:none;" d="M1580 1027L1581 1028L1580 1027z"/>
<path style="fill:#30aacf; stroke:none;" d="M1586 1027L1587 1028L1586 1027z"/>
<path style="fill:#98accc; stroke:none;" d="M1586.33 1028.67L1586.67 1029.33L1586.33 1028.67M1579.33 1029.67L1579.67 1030.33L1579.33 1029.67z"/>
<path style="fill:#30aacf; stroke:none;" d="M1587.33 1029.67L1587.67 1030.33L1587.33 1029.67M1578 1031L1579 1032L1578 1031z"/>
<path style="fill:#98accc; stroke:none;" d="M1587 1031L1588 1032L1587 1031M1578 1032L1579 1033L1578 1032z"/>
<path style="fill:#30aacf; stroke:none;" d="M1588 1032L1589 1033L1588 1032z"/>
<path style="fill:#98accc; stroke:none;" d="M1588 1033L1589 1034L1588 1033M1577 1034L1578 1035L1577 1034z"/>
<path style="fill:#30aacf; stroke:none;" d="M1589 1034L1590 1035L1589 1034z"/>
<path style="fill:#98accc; stroke:none;" d="M1589 1035L1590 1036L1589 1035M1576 1036L1577 1037L1576 1036z"/>
<path style="fill:#30aacf; stroke:none;" d="M1590 1036L1591 1037L1590 1036M1575 1037L1576 1038L1575 1037z"/>
<path style="fill:#98accc; stroke:none;" d="M1590 1037L1591 1038L1590 1037M1575 1038L1576 1039L1575 1038z"/>
<path style="fill:#30aacf; stroke:none;" d="M1591 1038L1592 1039L1591 1038M1574 1039L1575 1040L1574 1039z"/>
<path style="fill:#98accc; stroke:none;" d="M1591 1039L1592 1040L1591 1039M1574 1040L1575 1041L1574 1040z"/>
<path style="fill:#30aacf; stroke:none;" d="M1592 1040L1594 1042L1592 1040z"/>
<path style="fill:#98accc; stroke:none;" d="M1573.33 1041.67L1573.67 1042.33L1573.33 1041.67M1592 1041L1593 1042L1592 1041M1593 1042L1594 1043L1593 1042M1572 1043L1573 1044L1572 1043z"/>
<path style="fill:#30aacf; stroke:none;" d="M1594 1043L1595 1044L1594 1043M1571 1044L1572 1045L1571 1044z"/>
<path style="fill:#98accc; stroke:none;" d="M1594 1044L1595 1045L1594 1044M1571 1045L1572 1046L1571 1045z"/>
<path style="fill:#30aacf; stroke:none;" d="M1595 1045L1598 1048L1595 1045z"/>
<path style="fill:#98accc; stroke:none;" d="M1570 1046L1571 1047L1570 1046M1595 1046L1596 1047L1595 1046M1569 1047L1568 1050L1569 1047M1596 1047L1597 1048L1596 1047z"/>
<path style="fill:#30aacf; stroke:none;" d="M1568 1048L1569 1049L1568 1048z"/>
<path style="fill:#98accc; stroke:none;" d="M1597 1048L1598 1049L1597 1048z"/>
<path style="fill:#30aacf; stroke:none;" d="M1598 1049L1601 1052L1598 1049z"/>
<path style="fill:#98accc; stroke:none;" d="M1567 1050L1568 1051L1567 1050M1598 1050L1599 1051L1598 1050M1566 1051L1567 1052L1566 1051M1599 1051L1600 1052L1599 1051z"/>
<path style="fill:#30aacf; stroke:none;" d="M1565 1052L1563 1055L1565 1052z"/>
<path style="fill:#98accc; stroke:none;" d="M1600 1052L1601 1053L1600 1052M1565 1053L1566 1054L1565 1053M1601 1053L1602 1054L1601 1053M1564 1054L1565 1055L1564 1054z"/>
<path style="fill:#30aacf; stroke:none;" d="M1602 1054L1603 1055L1602 1054z"/>
<path style="fill:#98accc; stroke:none;" d="M1563 1055L1564 1056L1563 1055z"/>
<path style="fill:#30aacf; stroke:none;" d="M1603 1055L1607 1059L1603 1055z"/>
<path style="fill:#98accc; stroke:none;" d="M1562 1056L1563 1057L1562 1056M1603 1056L1604 1057L1603 1056M1561 1057L1562 1058L1561 1057M1604 1057L1605 1058L1604 1057z"/>
<path style="fill:#30aacf; stroke:none;" d="M1559 1058L1555 1063L1559 1058z"/>
<path style="fill:#98accc; stroke:none;" d="M1560 1058L1561 1059L1560 1058M1605 1058L1606 1059L1605 1058M1559 1059L1560 1060L1559 1059z"/>
<path style="fill:#30aacf; stroke:none;" d="M1607 1059L1608 1060L1607 1059z"/>
<path style="fill:#98accc; stroke:none;" d="M1558 1060L1559 1061L1558 1060M1608 1060L1613 1065L1608 1060z"/>
<path style="fill:#30aacf; stroke:none;" d="M1609 1060L1610 1061L1609 1060z"/>
<path style="fill:#98accc; stroke:none;" d="M1557 1061L1558 1062L1557 1061z"/>
<path style="fill:#30aacf; stroke:none;" d="M1610 1061L1611 1062L1610 1061z"/>
<path style="fill:#98accc; stroke:none;" d="M1556 1062L1557 1063L1556 1062z"/>
<path style="fill:#30aacf; stroke:none;" d="M1611 1062L1612 1063L1611 1062z"/>
<path style="fill:#98accc; stroke:none;" d="M1554 1063L1555 1064L1554 1063z"/>
<path style="fill:#30aacf; stroke:none;" d="M1612 1063L1613 1064L1612 1063M1552 1064L1551 1066L1552 1064z"/>
<path style="fill:#98accc; stroke:none;" d="M1553 1064L1554 1065L1553 1064z"/>
<path style="fill:#30aacf; stroke:none;" d="M1613 1064L1614 1065L1613 1064z"/>
<path style="fill:#98accc; stroke:none;" d="M1552 1065L1553 1066L1552 1065M1614 1065L1616 1067L1614 1065z"/>
<path style="fill:#30aacf; stroke:none;" d="M1615 1065L1616 1066L1615 1065M1549 1066L1548 1068L1549 1066z"/>
<path style="fill:#98accc; stroke:none;" d="M1550 1066L1551 1067L1550 1066z"/>
<path style="fill:#30aacf; stroke:none;" d="M1616 1066L1616 1067L1627 1072L1627 1071L1616 1066z"/>
<path style="fill:#98accc; stroke:none;" d="M1549 1067L1550 1068L1549 1067M1617 1067L1618 1068L1617 1067z"/>
<path style="fill:#30aacf; stroke:none;" d="M1546 1068L1547 1069L1546 1068z"/>
<path style="fill:#98accc; stroke:none;" d="M1547 1068L1548 1069L1547 1068M1618 1068L1619 1069L1618 1068z"/>
<path style="fill:#30aacf; stroke:none;" d="M1544 1069L1545 1070L1544 1069z"/>
<path style="fill:#98accc; stroke:none;" d="M1545 1069L1546 1070L1545 1069M1620 1069L1621 1070L1620 1069z"/>
<path style="fill:#30aacf; stroke:none;" d="M1389 1070L1388 1072L1389 1070M1393 1070L1392 1072L1393 1070M1397 1070L1396 1072L1397 1070M1401 1070L1400 1072L1401 1070M1405 1070L1404 1072L1405 1070M1409 1070L1408 1072L1409 1070M1413 1070L1412 1072L1413 1070M1417 1070L1416 1072L1417 1070M1421 1070L1420 1072L1421 1070M1425 1070L1424 1072L1425 1070M1429 1070L1428 1072L1429 1070M1433 1070L1432 1072L1433 1070M1437 1070L1436 1072L1437 1070M1441 1070L1440 1072L1441 1070M1445 1070L1444 1072L1445 1070M1449 1070L1448 1072L1449 1070M1453 1070L1452 1072L1453 1070M1457 1070L1456 1072L1457 1070M1461 1070L1460 1072L1461 1070M1465 1070L1464 1072L1465 1070M1469 1070L1468 1072L1469 1070M1473 1070L1472 1072L1473 1070M1477 1070L1476 1072L1477 1070M1481 1070L1480 1072L1481 1070M1485 1070L1484 1072L1485 1070M1489 1070L1488 1072L1489 1070M1493 1070L1492 1072L1493 1070M1497 1070L1496 1072L1497 1070M1501 1070L1500 1072L1501 1070M1505 1070L1504 1072L1505 1070M1509 1070L1508 1072L1509 1070M1513 1070L1512 1072L1513 1070M1517 1070L1516 1072L1517 1070M1521 1070L1520 1072L1521 1070M1525 1070L1524 1072L1525 1070M1529 1070L1528 1072L1529 1070M1533 1070L1532 1072L1533 1070M1537 1070L1536 1072L1537 1070M1540 1072L1543 1071L1540 1072z"/>
<path style="fill:#98accc; stroke:none;" d="M1543.67 1070.33L1544.33 1070.67L1543.67 1070.33M1622 1070L1623 1071L1622 1070z"/>
<path style="fill:#30aacf; stroke:none;" d="M1629 1070L1630 1071L1629 1070M1633 1070L1632 1072L1633 1070M1637 1070L1636 1072L1637 1070M1641 1070L1640 1072L1641 1070M1645 1070L1644 1072L1645 1070M1649 1070L1648 1072L1649 1070M1653 1070L1652 1072L1653 1070M1657 1070L1656 1072L1657 1070M1661 1070L1660 1072L1661 1070M1665 1070L1664 1072L1665 1070M1669 1070L1668 1072L1669 1070M1673 1070L1672 1072L1673 1070M1677 1070L1676 1072L1677 1070M1681 1070L1680 1072L1681 1070M1685 1070L1684 1072L1685 1070M1689 1070L1688 1072L1689 1070M1693 1070L1692 1072L1693 1070M1697 1070L1696 1072L1697 1070M1701 1070L1700 1072L1701 1070M1705 1070L1704 1072L1705 1070M1709 1070L1708 1072L1709 1070M1713 1070L1712 1072L1713 1070M1717 1070L1716 1072L1717 1070M1721 1070L1720 1072L1721 1070M1725 1070L1724 1072L1725 1070M1729 1070L1728 1072L1729 1070M1733 1070L1732 1072L1733 1070M1737 1070L1736 1072L1737 1070z"/>
<path style="fill:#98accc; stroke:none;" d="M1541.67 1071.33L1542.33 1071.67L1541.67 1071.33M1624 1071L1625 1072L1624 1071z"/>
<path style="fill:#30aacf; stroke:none;" d="M1628 1071C1623.73 1079.01 1610.6 1083.31 1604.04 1090.01C1593.68 1100.59 1589.68 1113.33 1583 1126C1577.46 1111.64 1571.02 1098.26 1559.71 1087.44C1553.5 1081.49 1544.49 1078.41 1539 1072C1502.58 1075.57 1464.27 1072.33 1427.67 1072.33L1398.33 1072.33C1394.95 1072.33 1389.11 1071.23 1386.21 1073.27C1380.91 1076.99 1379.37 1088.24 1377.19 1094C1368.93 1115.82 1364.42 1139.17 1360 1162C1345.94 1234.65 1349.56 1312.35 1367.48 1384C1372.19 1402.87 1377.8 1421.85 1384.81 1440C1388.64 1449.92 1395.97 1461.61 1397.67 1472C1398.34 1476.11 1395.2 1479.7 1393.2 1483C1388.48 1490.79 1383.73 1498.78 1379.78 1507C1364.38 1539.05 1349.99 1584.96 1379.01 1613.99C1396.57 1631.54 1422.23 1636.79 1446 1639.17C1493.95 1643.96 1544.59 1634.23 1591 1622.63C1750.41 1582.77 1903.12 1505.92 2042 1419.42C2077.18 1397.51 2112.24 1375.35 2146 1351.29C2157.4 1343.17 2177.8 1333.77 2185.38 1321.91C2188.98 1316.28 2182.18 1314.8 2178 1315.17C2166.32 1316.2 2154.69 1317.97 2143 1318.91C2112.3 1321.38 2081.65 1325.1 2051 1328.17C2042.3 1329.04 2024.2 1334.92 2019.18 1324.98C2015.01 1316.73 2026.95 1310.5 2031 1305L1998.33 1304.33L1932.33 1304.33L1884 1305C1896.26 1289.93 1908.93 1275.23 1921 1260C1924.47 1255.63 1933.22 1247.95 1933.06 1242C1932.74 1229.98 1910.52 1216.99 1901 1213L1901 1212C1923.52 1202.58 1937.4 1182.45 1945 1160L1946 1160C1950.32 1173.28 1956.58 1188.26 1968 1197L1997.8 1150L2008 1130L1933.67 1130.33L1786.33 1130.33L1731 1130.33L1704 1131L1737 1073L1710.33 1072.33L1657 1072.33L1628 1071z"/>
<path style="fill:#98accc; stroke:none;" d="M1539.33 1072.67L1539.67 1073.33L1539.33 1072.67M1626 1072L1628 1074L1628 1072L1626 1072M1540.67 1074.33L1541.33 1074.67L1540.67 1074.33M1625.67 1074.33L1626.33 1074.67L1625.67 1074.33M1542.67 1075.33L1543.33 1075.67L1542.67 1075.33M1623 1075L1624 1076L1623 1075M1544 1076L1545 1077L1544 1076M1621.67 1076.33L1622.33 1076.67L1621.67 1076.33M1546 1077L1547 1078L1546 1077M1619.67 1077.33L1620.33 1077.67L1619.67 1077.33M1547.67 1078.33L1548.33 1078.67L1547.67 1078.33M1618 1078L1619 1079L1618 1078M1549 1079L1550 1080L1549 1079M1616.67 1079.33L1617.33 1079.67L1616.67 1079.33M1551 1080L1552 1081L1551 1080M1615 1080L1616 1081L1615 1080M1552 1081L1553 1082L1552 1081M1613.67 1081.33L1614.33 1081.67L1613.67 1081.33M1553 1082L1554 1083L1553 1082M1612 1082L1613 1083L1612 1082M1555 1083L1556 1084L1555 1083M1611 1083L1612 1084L1611 1083M1556 1084L1557 1085L1556 1084M1609.67 1084.33L1610.33 1084.67L1609.67 1084.33M1557 1085L1558 1086L1557 1085M1608 1085L1609 1086L1608 1085M1558 1086L1559 1087L1558 1086M1607 1086L1608 1087L1607 1086M1606 1087L1607 1088L1606 1087M1605 1088L1606 1089L1605 1088M1561 1089L1562 1090L1561 1089M1604 1089L1605 1090L1604 1089M1562 1090L1563 1091L1562 1090M1603 1090L1604 1091L1603 1090M1563 1091L1564 1092L1563 1091M1602 1091L1603 1092L1602 1091M1564 1092L1565 1093L1564 1092M1601 1092L1602 1093L1601 1092M1565 1093L1566 1094L1565 1093M1600 1093L1601 1094L1600 1093M1566 1094L1567 1095L1566 1094M1567 1095L1568 1096L1567 1095M1599 1095L1600 1096L1599 1095M1598 1096L1599 1097L1598 1096z"/>
<path style="fill:#4c4e93; stroke:none;" d="M1375.33 1097.67L1375.67 1098.33L1375.33 1097.67z"/>
<path style="fill:#98accc; stroke:none;" d="M1568 1097L1569 1098L1568 1097M1597 1097L1598 1098L1597 1097M1569 1098L1570 1099L1569 1098M1596 1099L1597 1100L1596 1099z"/>
<path style="fill:#4c4e93; stroke:none;" d="M1374.33 1100.67L1374.67 1101.33L1374.33 1100.67z"/>
<path style="fill:#98accc; stroke:none;" d="M1570 1100L1571 1101L1570 1100M1595 1100L1596 1101L1595 1100M1571 1101L1572 1102L1571 1101M1594.33 1101.67L1594.67 1102.33L1594.33 1101.67M1572 1103L1573 1104L1572 1103M1593 1103L1594 1104L1593 1103z"/>
<path style="fill:#4c4e93; stroke:none;" d="M1373.33 1104.67L1373.67 1105.33L1373.33 1104.67z"/>
<path style="fill:#98accc; stroke:none;" d="M1573 1104L1574 1105L1573 1104M1592 1105L1593 1106L1592 1105M1574 1106L1575 1107L1574 1106M1591.33 1106.67L1591.67 1107.33L1591.33 1106.67z"/>
<path style="fill:#4c4e93; stroke:none;" d="M1372.33 1107.67L1372.67 1108.33L1372.33 1107.67z"/>
<path style="fill:#98accc; stroke:none;" d="M1575 1108L1576 1109L1575 1108M1590 1108L1591 1109L1590 1108M1576.33 1109.67L1576.67 1110.33L1576.33 1109.67M1589 1110L1590 1111L1589 1110z"/>
<path style="fill:#4c4e93; stroke:none;" d="M1371 1111L1372 1112L1371 1111z"/>
<path style="fill:#98accc; stroke:none;" d="M1577 1112L1578 1113L1577 1112M1588.33 1112.67L1588.67 1113.33L1588.33 1112.67z"/>
<path style="fill:#4c4e93; stroke:none;" d="M1370.33 1114.67L1370.67 1115.33L1370.33 1114.67z"/>
<path style="fill:#98accc; stroke:none;" d="M1578 1114L1579 1115L1578 1114M1587.33 1114.67L1587.67 1115.33L1587.33 1114.67M1579 1116L1580 1117L1579 1116M1586 1117L1587 1118L1586 1117z"/>
<path style="fill:#4c4e93; stroke:none;" d="M1369.33 1118.67L1369.67 1119.33L1369.33 1118.67z"/>
<path style="fill:#98accc; stroke:none;" d="M1580.33 1118.67L1580.67 1119.33L1580.33 1118.67M1585.33 1119.67L1585.67 1120.33L1585.33 1119.67M1581.33 1121.67L1581.67 1122.33L1581.33 1121.67z"/>
<path style="fill:#4c4e93; stroke:none;" d="M1368 1122L1369 1123L1368 1122z"/>
<path style="fill:#98accc; stroke:none;" d="M1584.33 1122.67L1584.67 1123.33L1584.33 1122.67M1582 1124L1583 1125L1582 1124M1583 1125L1584 1126L1583 1125z"/>
<path style="fill:#4c4e93; stroke:none;" d="M1367 1126L1368 1127L1367 1126z"/>
<path style="fill:#30aacf; stroke:none;" d="M1706 1129L1706 1130L1781 1129.67L1928.33 1129.67L1983 1129.67L2010 1129L1983.67 1128.33L1925.67 1128.33L1775.67 1128.33L1729.67 1128.33L1706 1129z"/>
<path style="fill:#4c4e93; stroke:none;" d="M1366.33 1130.67L1366.67 1131.33L1366.33 1130.67M1365.33 1134.67L1365.67 1135.33L1365.33 1134.67M1364.33 1138.67L1364.67 1139.33L1364.33 1138.67M1363.33 1143.67L1363.67 1144.33L1363.33 1143.67M1362 1148L1363 1149L1362 1148M1361 1153L1362 1154L1361 1153M1360.33 1158.67L1360.67 1159.33L1360.33 1158.67z"/>
<path style="fill:#98accc; stroke:none;" d="M1944 1163L1945 1163C1945.65 1161.04 1946 1160.45 1946 1163L1947 1163L1946 1160L1944 1163z"/>
<path style="fill:#fbfdfe; stroke:none;" d="M1945 1161C1936.11 1183.92 1923.29 1199.56 1902 1212L1902 1213C1923.73 1225.81 1934.91 1241.36 1945 1264L1965.43 1230.04L1989 1212C1974.67 1205 1963.18 1194.79 1955.01 1181C1951.28 1174.69 1949.32 1166.77 1945 1161z"/>
<path style="fill:#4c4e93; stroke:none;" d="M1359 1164L1360 1165L1359 1164z"/>
<path style="fill:#98accc; stroke:none;" d="M1943 1164L1944 1165L1943 1164M1947.33 1164.67L1947.67 1165.33L1947.33 1164.67M1942.33 1166.67L1942.67 1167.33L1942.33 1166.67M1948.33 1167.67L1948.67 1168.33L1948.33 1167.67M1941 1169L1942 1170L1941 1169z"/>
<path style="fill:#4c4e93; stroke:none;" d="M1358 1170L1359 1171L1358 1170z"/>
<path style="fill:#98accc; stroke:none;" d="M1949 1170L1950 1171L1949 1170M1940.33 1171.67L1940.67 1172.33L1940.33 1171.67M1950 1172L1951 1173L1950 1172M1939 1174L1940 1175L1939 1174M1951 1174L1952 1175L1951 1174z"/>
<path style="fill:#4c4e93; stroke:none;" d="M1357.33 1176.67L1357.67 1177.33L1357.33 1176.67z"/>
<path style="fill:#98accc; stroke:none;" d="M1938 1176L1939 1177L1938 1176M1952 1176L1953 1177L1952 1176M1937.33 1177.67L1937.67 1178.33L1937.33 1177.67M1953 1178L1954 1179L1953 1178M1936 1179L1937 1180L1936 1179M1954 1180L1955 1181L1954 1180M1935 1181L1936 1182L1935 1181M1955 1181L1956 1182L1955 1181z"/>
<path style="fill:#4c4e93; stroke:none;" d="M1356.33 1183.67L1356.67 1184.33L1356.33 1183.67z"/>
<path style="fill:#98accc; stroke:none;" d="M1934 1183L1935 1184L1934 1183M1956 1183L1957 1184L1956 1183M1933 1184L1934 1185L1933 1184M1957 1185L1958 1186L1957 1185M1932 1186L1933 1187L1932 1186M1958 1186L1959 1187L1958 1186M1931 1187L1932 1188L1931 1187M1959 1187L1960 1188L1959 1187M1930 1188L1931 1189L1930 1188M1960 1189L1961 1190L1960 1189M1929 1190L1930 1191L1929 1190M1961 1190L1962 1191L1961 1190z"/>
<path style="fill:#4c4e93; stroke:none;" d="M1355.33 1191.67L1355.67 1192.33L1355.33 1191.67z"/>
<path style="fill:#98accc; stroke:none;" d="M1928 1191L1929 1192L1928 1191M1962 1191L1963 1192L1962 1191M1927 1192L1928 1193L1927 1192M1963 1192L1964 1193L1963 1192M1926 1193L1927 1194L1926 1193M1964 1194L1965 1195L1964 1194M1965 1195L1966 1196L1965 1195M1923 1196L1924 1197L1923 1196M1966 1196L1967 1197L1966 1196M1922 1197L1923 1198L1922 1197M1967 1197L1968 1198L1967 1197M1921 1198L1922 1199L1921 1198M1968 1198L1970 1200L1968 1198z"/>
<path style="fill:#30aacf; stroke:none;" d="M1969 1198L1970 1199L1969 1198z"/>
<path style="fill:#98accc; stroke:none;" d="M1920 1199L1921 1200L1920 1199z"/>
<path style="fill:#30aacf; stroke:none;" d="M1970 1199L1971 1200L1970 1199z"/>
<path style="fill:#98accc; stroke:none;" d="M1919 1200L1920 1201L1919 1200M1971 1200L1972 1201L1971 1200z"/>
<path style="fill:#4c4e93; stroke:none;" d="M1354 1201L1355 1202L1354 1201z"/>
<path style="fill:#98accc; stroke:none;" d="M1918 1201L1919 1202L1918 1201M1972 1201L1973 1202L1972 1201M1917 1202L1918 1203L1917 1202M1973 1202L1974 1203L1973 1202M1974 1203L1975 1204L1974 1203M1914 1204L1915 1205L1914 1204M1975.67 1204.33L1976.33 1204.67L1975.67 1204.33M1913 1205L1914 1206L1913 1205M1977 1205L1978 1206L1977 1205M1911 1206L1912 1207L1911 1206M1978.67 1206.33L1979.33 1206.67L1978.67 1206.33M1909.67 1207.33L1910.33 1207.67L1909.67 1207.33M1980 1207L1981 1208L1980 1207M1908 1208L1909 1209L1908 1208M1982 1208L1983 1209L1982 1208M1906 1209L1907 1210L1906 1209M1983.67 1209.33L1984.33 1209.67L1983.67 1209.33M1904 1210L1905 1211L1904 1210M1985.67 1210.33L1986.33 1210.67L1985.67 1210.33z"/>
<path style="fill:#4c4e93; stroke:none;" d="M1353.33 1211.67L1353.67 1212.33L1353.33 1211.67z"/>
<path style="fill:#98accc; stroke:none;" d="M1902 1211L1903 1212L1902 1211M1988 1211L1984 1215L1984 1216C1986.56 1214.83 1989.25 1213.95 1988 1211z"/>
<path style="fill:#30aacf; stroke:none;" d="M1989 1211L1990 1212L1989 1211z"/>
<path style="fill:#98accc; stroke:none;" d="M1901 1212L1902 1213L1901 1212M1902 1213L1903 1214L1902 1213z"/>
<path style="fill:#30aacf; stroke:none;" d="M1989 1213L1990 1214L1989 1213z"/>
<path style="fill:#98accc; stroke:none;" d="M1904 1214L1905 1215L1904 1214z"/>
<path style="fill:#30aacf; stroke:none;" d="M1987 1214L1988 1215L1987 1214z"/>
<path style="fill:#98accc; stroke:none;" d="M1906 1215L1907 1216L1906 1215z"/>
<path style="fill:#30aacf; stroke:none;" d="M1985 1215L1986 1216L1985 1215z"/>
<path style="fill:#98accc; stroke:none;" d="M1908 1216L1909 1217L1908 1216M1982.67 1216.33L1983.33 1216.67L1982.67 1216.33M1909 1217L1910 1218L1909 1217M1979 1219L1982 1218L1979 1219M1911 1218L1912 1219L1911 1218z"/>
<path style="fill:#30aacf; stroke:none;" d="M1980 1218L1981 1219L1980 1218z"/>
<path style="fill:#98accc; stroke:none;" d="M1912 1219L1913 1220L1912 1219M1977.67 1219.33L1978.33 1219.67L1977.67 1219.33M1914 1220L1915 1221L1914 1220M1976 1220L1977 1221L1976 1220M1915 1221L1916 1222L1915 1221M1973 1223L1976 1222L1973 1223M1917 1222L1918 1223L1917 1222z"/>
<path style="fill:#30aacf; stroke:none;" d="M1974 1222L1975 1223L1974 1222z"/>
<path style="fill:#98accc; stroke:none;" d="M1918 1223L1919 1224L1918 1223M1972 1223L1973 1224L1972 1223M1919 1224L1920 1225L1919 1224M1971 1224L1972 1225L1971 1224M1920 1225L1921 1226L1920 1225M1970 1225L1971 1226L1970 1225M1921 1226L1922 1227L1921 1226M1965 1231L1966 1231L1970 1227L1965 1231z"/>
<path style="fill:#4c4e93; stroke:none;" d="M1352 1227L1353 1228L1352 1227z"/>
<path style="fill:#30aacf; stroke:none;" d="M1968 1227L1969 1228L1968 1227z"/>
<path style="fill:#98accc; stroke:none;" d="M1923 1228L1924 1229L1923 1228z"/>
<path style="fill:#30aacf; stroke:none;" d="M1967 1228L1968 1229L1967 1228z"/>
<path style="fill:#98accc; stroke:none;" d="M1924 1229L1925 1230L1924 1229z"/>
<path style="fill:#30aacf; stroke:none;" d="M1966 1229L1967 1230L1966 1229z"/>
<path style="fill:#98accc; stroke:none;" d="M1925 1230L1926 1231L1925 1230M1926 1231L1927 1232L1926 1231M1964 1231L1965 1232L1964 1231M1927 1232L1928 1233L1927 1232M1963 1232L1964 1233L1963 1232M1928 1233L1929 1234L1928 1233M1962 1233L1963 1234L1962 1233M1961 1234L1960 1236L1961 1234z"/>
<path style="fill:#30aacf; stroke:none;" d="M1961 1235L1962 1236L1961 1235z"/>
<path style="fill:#98accc; stroke:none;" d="M1930 1236L1931 1237L1930 1236z"/>
<path style="fill:#30aacf; stroke:none;" d="M1960 1236L1961 1237L1960 1236z"/>
<path style="fill:#98accc; stroke:none;" d="M1931 1237L1932 1238L1931 1237M1959 1237L1960 1238L1959 1237M1958 1238L1957 1241L1958 1241L1958 1238M1932 1239L1933 1240L1932 1239z"/>
<path style="fill:#30aacf; stroke:none;" d="M1958 1239L1959 1240L1958 1239z"/>
<path style="fill:#98accc; stroke:none;" d="M1933 1240L1934 1241L1933 1240M1956 1241L1955 1244L1956 1244L1956 1241M1934 1242L1935 1243L1934 1242z"/>
<path style="fill:#30aacf; stroke:none;" d="M1956 1242L1957 1243L1956 1242M2237 1242L2235 1263L2236 1263L2246 1242L2237 1242M2285 1285C2272.26 1281.83 2256.14 1284.33 2243 1284.33C2239.48 1284.33 2231.88 1282.92 2228.99 1285.17C2225.3 1288.05 2227.51 1295.16 2227.95 1299C2229.67 1314.12 2238.42 1327.1 2250 1336.67C2267.61 1351.22 2292.06 1354 2314 1354L2302.73 1429L2288 1531L2287 1531C2286.74 1499.02 2279 1467.18 2279 1435C2279 1429.34 2282.17 1407.11 2275.77 1404.8C2271.9 1403.41 2268.4 1407.65 2266 1410C2259.09 1416.78 2251.85 1423.15 2245 1430C2216.29 1458.71 2185.2 1485.44 2154 1511.41C2030.8 1613.95 1896.72 1699.42 1752 1768C1762.27 1775.31 1782.66 1775.88 1795 1777.92C1834.22 1784.42 1874.34 1786.81 1914 1784.09C2103.9 1771.08 2270.75 1660.7 2357.74 1491C2368.05 1470.89 2376.71 1449.38 2384 1428C2387.75 1417 2389.67 1404.51 2394.55 1394C2401.12 1379.86 2415.63 1370.56 2419.84 1355C2424.85 1336.5 2416.89 1310.87 2414.83 1292C2414.26 1286.69 2411.27 1279.28 2412.77 1274.04C2414 1269.75 2419.72 1266.81 2423 1264.2C2431.09 1257.75 2440.92 1251.45 2447 1243C2435.82 1240.22 2421.86 1242.33 2410.33 1242.33L2337 1242.33L2309.67 1242.33C2306.54 1242.33 2301.6 1241.41 2298.86 1243.17C2285.75 1251.57 2286.46 1271.89 2285 1285M2447 1242L2448 1243L2447 1242z"/>
<path style="fill:#98accc; stroke:none;" d="M1935 1243L1936 1244L1935 1243z"/>
<path style="fill:#30aacf; stroke:none;" d="M1935 1244L1936 1245L1935 1244z"/>
<path style="fill:#98accc; stroke:none;" d="M1954 1244L1955 1245L1954 1244M1936 1245L1937 1246L1936 1245z"/>
<path style="fill:#30aacf; stroke:none;" d="M1954 1245L1955 1246L1954 1245z"/>
<path style="fill:#98accc; stroke:none;" d="M1953 1246L1954 1247L1953 1246M1937 1247L1938 1248L1937 1247z"/>
<path style="fill:#30aacf; stroke:none;" d="M1953 1247L1954 1248L1953 1247z"/>
<path style="fill:#98accc; stroke:none;" d="M1938.33 1248.67L1938.67 1249.33L1938.33 1248.67M1952 1248L1953 1249L1952 1248z"/>
<path style="fill:#30aacf; stroke:none;" d="M1952 1249L1953 1250L1952 1249z"/>
<path style="fill:#98accc; stroke:none;" d="M1939.33 1250.67L1939.67 1251.33L1939.33 1250.67M1951 1250L1952 1251L1951 1250z"/>
<path style="fill:#30aacf; stroke:none;" d="M1951 1251L1952 1252L1951 1251z"/>
<path style="fill:#98accc; stroke:none;" d="M1950 1252L1951 1253L1950 1252M1940 1253L1941 1254L1940 1253z"/>
<path style="fill:#30aacf; stroke:none;" d="M1950 1253L1951 1254L1950 1253M1940 1254L1941 1255L1940 1254z"/>
<path style="fill:#98accc; stroke:none;" d="M1949 1254L1950 1255L1949 1254M1941 1255L1942 1256L1941 1255z"/>
<path style="fill:#30aacf; stroke:none;" d="M1949.33 1255.67L1949.67 1256.33L1949.33 1255.67z"/>
<path style="fill:#4c4e93; stroke:none;" d="M2433 1255L2434 1256L2433 1255z"/>
<path style="fill:#30aacf; stroke:none;" d="M1941 1256L1942 1257L1941 1256z"/>
<path style="fill:#98accc; stroke:none;" d="M1948.33 1256.67L1948.67 1257.33L1948.33 1256.67z"/>
<path style="fill:#4c4e93; stroke:none;" d="M2432 1256L2433 1257L2432 1256z"/>
<path style="fill:#98accc; stroke:none;" d="M1942.33 1257.67L1942.67 1258.33L1942.33 1257.67z"/>
<path style="fill:#4c4e93; stroke:none;" d="M2431 1257L2432 1258L2431 1257z"/>
<path style="fill:#30aacf; stroke:none;" d="M1948 1258L1949 1259L1948 1258z"/>
<path style="fill:#98accc; stroke:none;" d="M1947 1259L1944 1263L1944 1264L1946 1265L1947 1259z"/>
<path style="fill:#4c4e93; stroke:none;" d="M2428 1259L2429 1260L2428 1259z"/>
<path style="fill:#98accc; stroke:none;" d="M1943.33 1260.67L1943.67 1261.33L1943.33 1260.67z"/>
<path style="fill:#4c4e93; stroke:none;" d="M2427 1260L2428 1261L2427 1260z"/>
<path style="fill:#30aacf; stroke:none;" d="M1947 1261L1948 1262L1947 1261z"/>
<path style="fill:#4c4e93; stroke:none;" d="M2426 1261L2427 1262L2426 1261M2423 1263L2424 1264L2423 1263z"/>
<path style="fill:#30aacf; stroke:none;" d="M1944 1264L1945 1265L1944 1264M1946 1264L1947 1265L1946 1264z"/>
<path style="fill:#4c4e93; stroke:none;" d="M2422 1264L2423 1265L2422 1264z"/>
<path style="fill:#30aacf; stroke:none;" d="M1945 1265L1946 1266L1945 1265z"/>
<path style="fill:#4c4e93; stroke:none;" d="M2418 1267L2419 1268L2418 1267M2417 1268L2418 1269L2417 1268M2414 1270L2415 1271L2414 1270M2413 1271L2414 1272L2413 1271M2412 1272L2413 1284L2414 1284L2412 1272z"/>
<path style="fill:#30aacf; stroke:none;" d="M2094 1294C2114.33 1293.83 2134.72 1289.36 2155 1287.98C2160.66 1287.59 2174.24 1288.31 2178 1284C2157.99 1286.45 2136.5 1284.33 2116.33 1284.33C2107.5 1284.33 2097.04 1283.38 2094 1294M2179 1284L2180 1285L2179 1284M2181 1284L2182 1285L2181 1284M2183 1284L2184 1285L2183 1284M2185 1284L2186 1285L2185 1284M2187 1284L2188 1285L2187 1284z"/>
<path style="fill:#4c4e93; stroke:none;" d="M2414 1285L2414 1290L2415 1290L2414 1285M2169 1286L2169 1287L2175 1287L2169 1286M2159 1287L2159 1288L2165 1288L2159 1287M2149 1288L2149 1289L2156 1289L2149 1288M2140 1289L2140 1290L2146 1290L2140 1289M2130 1290L2130 1291L2136 1291L2130 1290M2120 1291L2120 1292L2126 1292L2120 1291M2111 1292L2111 1293L2117 1293L2111 1292M2101 1293L2101 1294L2107 1294L2101 1293M2095.67 1294.33L2096.33 1294.67L2095.67 1294.33M2415 1294L2415 1299L2416 1299L2415 1294z"/>
<path style="fill:#30aacf; stroke:none;" d="M1889 1302L1888 1304L1889 1302M1893 1302L1892 1304L1893 1302M1897 1302L1896 1304L1897 1302M1901 1302L1900 1304L1901 1302M1905 1302L1904 1304L1905 1302M1909 1302L1908 1304L1909 1302M1913 1302L1912 1304L1913 1302M1917 1302L1916 1304L1917 1302M1921 1302L1920 1304L1921 1302M1925 1302L1924 1304L1925 1302M1929 1302L1928 1304L1929 1302M1933 1302L1932 1304L1933 1302M1937 1302L1936 1304L1937 1302M1941 1302L1940 1304L1941 1302M1945 1302L1944 1304L1945 1302M1949 1302L1948 1304L1949 1302M1953 1302L1952 1304L1953 1302M1957 1302L1956 1304L1957 1302M1961 1302L1960 1304L1961 1302M1965 1302L1964 1304L1965 1302M1969 1302L1968 1304L1969 1302M1973 1302L1972 1304L1973 1302M1977 1302L1976 1304L1977 1302M1981 1302L1980 1304L1981 1302M1985 1302L1984 1304L1985 1302M1989 1302L1988 1304L1989 1302M1993 1302L1992 1304L1993 1302M1997 1302L1996 1304L1997 1302M2001 1302L2000 1304L2001 1302M2005 1302L2004 1304L2005 1302M2009 1302L2008 1304L2009 1302M2013 1302L2012 1304L2013 1302M2017 1302L2016 1304L2017 1302M2021 1302L2020 1304L2021 1302M2025 1302L2024 1304L2025 1302M2029 1302L2028 1304L2029 1302M2033 1302L2031 1305L2033 1302z"/>
<path style="fill:#4c4e93; stroke:none;" d="M2228.33 1303.67L2228.67 1304.33L2228.33 1303.67M2416 1303L2416 1307L2417 1307L2416 1303M1882 1306L1883 1307L1882 1306M1886 1306L1887 1307L1886 1306M1890 1306L1891 1307L1890 1306M1894 1306L1895 1307L1894 1306M1898 1306L1899 1307L1898 1306M1902 1306L1903 1307L1902 1306M1906 1306L1907 1307L1906 1306M1910 1306L1911 1307L1910 1306M1914 1306L1915 1307L1914 1306M1918 1306L1919 1307L1918 1306M1922 1306L1923 1307L1922 1306M1926 1306L1927 1307L1926 1306M1930 1306L1931 1307L1930 1306M1934 1306L1935 1307L1934 1306M1938 1306L1939 1307L1938 1306M1942 1306L1943 1307L1942 1306M1946 1306L1947 1307L1946 1306M1950 1306L1951 1307L1950 1306M1954 1306L1955 1307L1954 1306M1958 1306L1959 1307L1958 1306M1962 1306L1963 1307L1962 1306M1966 1306L1967 1307L1966 1306M1970 1306L1971 1307L1970 1306M1974 1306L1975 1307L1974 1306M1978 1306L1979 1307L1978 1306M1982 1306L1983 1307L1982 1306M1986 1306L1987 1307L1986 1306M1990 1306L1991 1307L1990 1306M1994 1306L1995 1307L1994 1306M1998 1306L1999 1307L1998 1306M2002 1306L2003 1307L2002 1306M2006 1306L2007 1307L2006 1306M2010 1306L2011 1307L2010 1306M2014 1306L2015 1307L2014 1306M2018 1306L2019 1307L2018 1306M2022 1306L2023 1307L2022 1306M2026 1306L2027 1307L2026 1306M2229.33 1307.67L2229.67 1308.33L2229.33 1307.67M2230 1310L2231 1311L2230 1310M2231.33 1312.67L2231.67 1313.33L2231.33 1312.67M2417 1312L2417 1315L2418 1315L2417 1312M2039 1328L2039 1329L2185 1315C2173.94 1310.36 2153.8 1316.65 2142 1317.83C2108.12 1321.22 2073.04 1327.91 2039 1328M2185 1315L2186 1316L2185 1315M2232 1315L2233 1316L2232 1315M2186 1316L2187 1317L2186 1316M2233 1317L2234 1318L2233 1317M2018.33 1318.67L2018.67 1319.33L2018.33 1318.67M2187.33 1318.67L2187.67 1319.33L2187.33 1318.67M2234 1318L2235 1319L2234 1318M2235 1320L2236 1321L2235 1320M2186 1321L2187 1322L2186 1321M2236 1321L2237 1322L2236 1321M2418 1321L2418 1324L2419 1324L2418 1321M2185 1322L2186 1323L2185 1322M2018.33 1323.67L2018.67 1324.33L2018.33 1323.67M2184 1323L2185 1324L2184 1323M2237 1323L2238 1324L2237 1323M2183 1324L2184 1325L2183 1324M2181 1325L2182 1326L2181 1325M2019 1326L2020 1327L2019 1326M2180 1326L2181 1327L2180 1326M2020 1327L2021 1328L2020 1327M2179 1327L2180 1328L2179 1327M2240 1327L2241 1328L2240 1327M2021 1328L2021 1329L2039 1330L2039 1329L2021 1328M2177 1328L2178 1329L2177 1328M2241 1328L2242 1329L2241 1328M2176 1329L2177 1330L2176 1329M2242 1329L2243 1330L2242 1329M2175 1330L2176 1331L2175 1330M2243 1330L2244 1331L2243 1330M2419 1330L2419 1333L2420 1333L2419 1330M2173 1331L2174 1332L2173 1331M2244 1331L2245 1332L2244 1331M2172 1332L2173 1333L2172 1332M2245 1332L2246 1333L2245 1332M2171 1333L2172 1334L2171 1333M2246 1333L2247 1334L2246 1333M2169 1334L2170 1335L2169 1334M2247 1334L2248 1335L2247 1334M2168 1335L2169 1336L2168 1335M2166 1336L2167 1337L2166 1336M2165 1337L2166 1338L2165 1337M2163 1338L2164 1339L2163 1338M2252 1338L2253 1339L2252 1338M2162 1339L2163 1340L2162 1339M2420.33 1339.67L2420.67 1340.33L2420.33 1339.67M2161 1340L2162 1341L2161 1340M2255 1340L2256 1341L2255 1340M2159 1341L2160 1342L2159 1341M2257 1341L2258 1342L2257 1341M2158 1342L2159 1343L2158 1342M2156 1343L2157 1344L2156 1343M2155 1344L2156 1345L2155 1344M2152 1346L2153 1347L2152 1346M2267 1346L2268 1347L2267 1346M2151 1347L2152 1348L2151 1347M2269 1347L2270 1348L2269 1347M2149 1348L2150 1349L2149 1348M2272 1348L2273 1349L2272 1348M2148 1349L2149 1350L2148 1349M2275 1349L2276 1350L2275 1349M2279 1350L2280 1351L2279 1350M2145 1351L2146 1352L2145 1351M2283 1351L2284 1352L2283 1351M2144 1352L2145 1353L2144 1352M2288.67 1352.33L2289.33 1352.67L2288.67 1352.33M2420 1352L2421 1353L2420 1352M2142 1353L2143 1354L2142 1353M2295 1353L2295 1354L2298 1354L2295 1353M2141 1354L2142 1355L2141 1354M2313.33 1354.67L2313.67 1355.33L2313.33 1354.67M2138 1356L2139 1357L2138 1356M2419 1356L2420 1357L2419 1356M2135 1358L2136 1359L2135 1358M2418 1359L2419 1360L2418 1359M2132 1360L2133 1361L2132 1360M2131 1361L2132 1362L2131 1361M2312.33 1361.67L2312.67 1362.33L2312.33 1361.67M2417 1361L2418 1362L2417 1361M2129 1362L2130 1363L2129 1362M2128 1363L2129 1364L2128 1363M2416 1363L2417 1364L2416 1363M2126 1364L2127 1365L2126 1364M2125 1365L2126 1366L2125 1365M2123 1366L2124 1367L2123 1366M2414 1366L2415 1367L2414 1366M2122 1367L2123 1368L2122 1367M2120 1368L2121 1369L2120 1368M2311 1368L2312 1369L2311 1368M2119 1369L2120 1370L2119 1369M2411 1370L2412 1371L2411 1370M2116 1371L2117 1372L2116 1371M2113 1373L2114 1374L2113 1373M2408 1374L2409 1375L2408 1374M2110 1375L2111 1376L2110 1375M2310 1375L2311 1376L2310 1375M2107 1377L2108 1378L2107 1377M2104 1379L2105 1380L2104 1379M2101 1381L2102 1382L2101 1381z"/>
<path style="fill:#98accc; stroke:none;" d="M1620 1382L1620 1384L1622 1384L1620 1382z"/>
<path style="fill:#4c4e93; stroke:none;" d="M2309 1382L2310 1383L2309 1382M2098 1383L2099 1384L2098 1383M2401 1383L2402 1384L2401 1383z"/>
<path style="fill:#fbfdfe; stroke:none;" d="M1620 1384C1615.22 1398.05 1605.59 1410.57 1592 1417L1592 1419C1607.7 1426.43 1612.44 1439.47 1621 1453C1630.34 1438.24 1635.82 1428.05 1651 1418C1638.11 1409.05 1626.57 1399.86 1622 1384L1620 1384z"/>
<path style="fill:#98accc; stroke:none;" d="M1619 1385L1620 1386L1619 1385M1622.33 1385.67L1622.67 1386.33L1622.33 1385.67z"/>
<path style="fill:#4c4e93; stroke:none;" d="M2095 1385L2096 1386L2095 1385M2092 1387L2093 1388L2092 1387M2398 1387L2399 1388L2398 1387z"/>
<path style="fill:#98accc; stroke:none;" d="M1618 1388L1619 1389L1618 1388M1623 1388L1624 1389L1623 1388z"/>
<path style="fill:#4c4e93; stroke:none;" d="M2090 1388L2091 1389L2090 1388M2089 1389L2090 1390L2089 1389M2308 1389L2309 1390L2308 1389z"/>
<path style="fill:#98accc; stroke:none;" d="M1617 1390L1618 1391L1617 1390M1624 1390L1625 1391L1624 1390z"/>
<path style="fill:#4c4e93; stroke:none;" d="M2087 1390L2088 1391L2087 1390M2395 1391L2396 1392L2395 1391z"/>
<path style="fill:#98accc; stroke:none;" d="M1616 1392L1617 1393L1616 1392M1625 1392L1626 1393L1625 1392z"/>
<path style="fill:#4c4e93; stroke:none;" d="M2084 1392L2085 1393L2084 1392M2394 1393L2395 1394L2394 1393z"/>
<path style="fill:#98accc; stroke:none;" d="M1615 1394L1616 1395L1615 1394M1626 1394L1627 1395L1626 1394z"/>
<path style="fill:#4c4e93; stroke:none;" d="M2081 1394L2082 1395L2081 1394z"/>
<path style="fill:#98accc; stroke:none;" d="M1614 1396L1615 1397L1614 1396M1627 1396L1628 1397L1627 1396z"/>
<path style="fill:#4c4e93; stroke:none;" d="M2078 1396L2079 1397L2078 1396M2393 1396L2394 1397L2393 1396M2076 1397L2077 1398L2076 1397z"/>
<path style="fill:#98accc; stroke:none;" d="M1612 1399L1613 1400L1612 1399M1629 1399L1630 1400L1629 1399z"/>
<path style="fill:#4c4e93; stroke:none;" d="M2073 1399L2074 1400L2073 1399M2392 1400L2393 1401L2392 1400M2070 1401L2071 1402L2070 1401z"/>
<path style="fill:#98accc; stroke:none;" d="M1610 1402L1611 1403L1610 1402M1631 1402L1632 1403L1631 1402z"/>
<path style="fill:#4c4e93; stroke:none;" d="M2068 1402L2069 1403L2068 1402z"/>
<path style="fill:#98accc; stroke:none;" d="M1609 1403L1610 1404L1609 1403M1632 1403L1633 1404L1632 1403z"/>
<path style="fill:#4c4e93; stroke:none;" d="M2067 1403L2068 1404L2067 1403M2391 1403L2392 1404L2391 1403z"/>
<path style="fill:#98accc; stroke:none;" d="M1608 1404L1609 1405L1608 1404M1633 1404L1634 1405L1633 1404z"/>
<path style="fill:#4c4e93; stroke:none;" d="M2065 1404L2066 1405L2065 1404M2271 1404L2272 1405L2271 1404M2276 1404L2277 1405L2276 1404M2270 1405L2271 1406L2270 1405M2062 1406L2063 1407L2062 1406M2269 1406L2270 1407L2269 1406M2278 1406L2279 1407L2278 1406M2268 1407L2269 1408L2268 1407M2390 1407L2391 1408L2390 1407M2059 1408L2060 1409L2059 1408M2267 1408L2268 1409L2267 1408z"/>
<path style="fill:#98accc; stroke:none;" d="M1603 1409L1604 1410L1603 1409M1638 1409L1639 1410L1638 1409z"/>
<path style="fill:#4c4e93; stroke:none;" d="M2057 1409L2058 1410L2057 1409M2266 1409L2267 1410L2266 1409M2305 1409L2306 1410L2305 1409z"/>
<path style="fill:#98accc; stroke:none;" d="M1602 1410L1603 1411L1602 1410M1639 1410L1640 1411L1639 1410z"/>
<path style="fill:#4c4e93; stroke:none;" d="M2265 1410L2266 1411L2265 1410M2389 1410L2390 1411L2389 1410z"/>
<path style="fill:#98accc; stroke:none;" d="M1601 1411L1602 1412L1601 1411M1640 1411L1641 1412L1640 1411z"/>
<path style="fill:#4c4e93; stroke:none;" d="M2054 1411L2055 1412L2054 1411M2264 1411L2265 1412L2264 1411M2263 1412L2264 1413L2263 1412z"/>
<path style="fill:#98accc; stroke:none;" d="M1598 1413L1599 1414L1598 1413M1643 1413L1644 1414L1643 1413z"/>
<path style="fill:#4c4e93; stroke:none;" d="M2051 1413L2052 1414L2051 1413M2262 1413L2263 1414L2262 1413M2388 1413L2389 1414L2388 1413M2049 1414L2050 1415L2049 1414M2261 1414L2262 1415L2261 1414z"/>
<path style="fill:#98accc; stroke:none;" d="M1595 1415L1596 1416L1595 1415M1646 1415L1647 1416L1646 1415z"/>
<path style="fill:#4c4e93; stroke:none;" d="M2260 1415L2261 1416L2260 1415z"/>
<path style="fill:#98accc; stroke:none;" d="M1593 1416L1594 1417L1593 1416M1648 1416L1649 1417L1648 1416z"/>
<path style="fill:#4c4e93; stroke:none;" d="M2046 1416L2047 1417L2046 1416M2259 1416L2260 1417L2259 1416M2304 1416L2305 1417L2304 1416z"/>
<path style="fill:#98accc; stroke:none;" d="M1591.33 1417.67L1591.67 1418.33L1591.33 1417.67z"/>
<path style="fill:#4c4e93; stroke:none;" d="M2258 1417L2259 1418L2258 1417z"/>
<path style="fill:#98accc; stroke:none;" d="M1650 1418L1651 1419L1650 1418z"/>
<path style="fill:#4c4e93; stroke:none;" d="M2043 1418L2044 1419L2043 1418M2257 1418L2258 1419L2257 1418z"/>
<path style="fill:#98accc; stroke:none;" d="M1593 1419L1594 1420L1593 1419M1648 1419L1649 1420L1648 1419z"/>
<path style="fill:#4c4e93; stroke:none;" d="M2041 1419L2042 1420L2041 1419z"/>
<path style="fill:#98accc; stroke:none;" d="M1595 1420L1596 1421L1595 1420z"/>
<path style="fill:#4c4e93; stroke:none;" d="M2386 1420L2387 1421L2386 1420z"/>
<path style="fill:#98accc; stroke:none;" d="M1596 1421L1597 1422L1596 1421M1645 1421L1646 1422L1645 1421z"/>
<path style="fill:#4c4e93; stroke:none;" d="M2038 1421L2039 1422L2038 1421z"/>
<path style="fill:#98accc; stroke:none;" d="M1598 1422L1599 1423L1598 1422M1643 1422L1644 1423L1643 1422M1599 1423L1600 1424L1599 1423M1642 1423L1643 1424L1642 1423z"/>
<path style="fill:#4c4e93; stroke:none;" d="M2303 1423L2304 1424L2303 1423M2385 1423L2386 1424L2385 1423z"/>
<path style="fill:#98accc; stroke:none;" d="M1601 1424L1602 1425L1601 1424M1640 1424L1641 1425L1640 1424z"/>
<path style="fill:#4c4e93; stroke:none;" d="M2033 1424L2034 1425L2033 1424z"/>
<path style="fill:#98accc; stroke:none;" d="M1602 1425L1603 1426L1602 1425M1639 1425L1640 1426L1639 1425M1603 1426L1604 1427L1603 1426M1638 1426L1639 1427L1638 1426z"/>
<path style="fill:#4c4e93; stroke:none;" d="M2030 1426L2031 1427L2030 1426M2384 1426L2385 1427L2384 1426z"/>
<path style="fill:#98accc; stroke:none;" d="M1637 1427L1638 1428L1637 1427z"/>
<path style="fill:#4c4e93; stroke:none;" d="M2028 1427L2029 1428L2028 1427z"/>
<path style="fill:#98accc; stroke:none;" d="M1636 1428L1637 1429L1636 1428M1606 1429L1607 1430L1606 1429M1635 1429L1636 1430L1635 1429z"/>
<path style="fill:#4c4e93; stroke:none;" d="M2025 1429L2026 1430L2025 1429z"/>
<path style="fill:#98accc; stroke:none;" d="M1607 1430L1608 1431L1607 1430M1634 1430L1635 1431L1634 1430z"/>
<path style="fill:#4c4e93; stroke:none;" d="M2023 1430L2024 1431L2023 1430M2302 1430L2303 1431L2302 1430z"/>
<path style="fill:#98accc; stroke:none;" d="M1608 1431L1609 1432L1608 1431M1633 1431L1634 1432L1633 1431M1609 1432L1610 1433L1609 1432M1632 1432L1633 1433L1632 1432z"/>
<path style="fill:#4c4e93; stroke:none;" d="M2020 1432L2021 1433L2020 1432M2242 1432L2243 1433L2242 1432M2018 1433L2019 1434L2018 1433M2241 1433L2242 1434L2241 1433M2240 1434L2241 1435L2240 1434M2381 1434L2382 1435L2381 1434z"/>
<path style="fill:#98accc; stroke:none;" d="M1630 1435L1631 1436L1630 1435z"/>
<path style="fill:#4c4e93; stroke:none;" d="M2015 1435L2016 1436L2015 1435M2239 1435L2240 1436L2239 1435z"/>
<path style="fill:#98accc; stroke:none;" d="M1612 1436L1613 1437L1612 1436M1629 1436L1630 1437L1629 1436z"/>
<path style="fill:#4c4e93; stroke:none;" d="M2013 1436L2014 1437L2013 1436M2238 1436L2239 1437L2238 1436M2237 1437L2238 1438L2237 1437M2380 1437L2381 1438L2380 1437M2010 1438L2011 1439L2010 1438M2236 1438L2237 1439L2236 1438z"/>
<path style="fill:#98accc; stroke:none;" d="M1614 1439L1615 1440L1614 1439M1627 1439L1628 1440L1627 1439z"/>
<path style="fill:#4c4e93; stroke:none;" d="M2008 1439L2009 1440L2008 1439M2235 1439L2236 1440L2235 1439z"/>
<path style="fill:#98accc; stroke:none;" d="M1615 1441L1616 1442L1615 1441M1626 1441L1627 1442L1626 1441z"/>
<path style="fill:#4c4e93; stroke:none;" d="M2003 1442L2004 1443L2003 1442z"/>
<path style="fill:#98accc; stroke:none;" d="M1616 1443L1617 1444L1616 1443M1625 1443L1626 1444L1625 1443M1617 1445L1618 1446L1617 1445M1624 1445L1625 1446L1624 1445z"/>
<path style="fill:#4c4e93; stroke:none;" d="M1998 1445L1999 1446L1998 1445M2279 1445L2279 1451L2280 1451L2279 1445M2377 1445L2378 1446L2377 1445z"/>
<path style="fill:#98accc; stroke:none;" d="M1618 1447L1619 1448L1618 1447M1623 1447L1624 1448L1623 1447z"/>
<path style="fill:#4c4e93; stroke:none;" d="M1993 1448L1994 1449L1993 1448M2225 1448L2226 1449L2225 1448M1991 1449L1992 1450L1991 1449M2224 1449L2225 1450L2224 1449z"/>
<path style="fill:#98accc; stroke:none;" d="M1619 1450L1620 1451L1619 1450M1622 1450L1623 1451L1622 1450z"/>
<path style="fill:#4c4e93; stroke:none;" d="M2223 1450L2224 1451L2223 1450M2375 1450L2376 1451L2375 1450M2222 1451L2223 1452L2222 1451M1986 1452L1987 1453L1986 1452M2221 1452L2222 1453L2221 1452z"/>
<path style="fill:#98accc; stroke:none;" d="M1620 1453L1621 1454L1620 1453z"/>
<path style="fill:#4c4e93; stroke:none;" d="M1984 1453L1985 1454L1984 1453M2220 1453L2221 1454L2220 1453M2373 1455L2374 1456L2373 1455M1977 1457L1978 1458L1977 1457M2371 1460L2372 1461L2371 1460M1970 1461L1971 1462L1970 1461M1968 1462L1969 1463L1968 1462M2210 1462L2211 1463L2210 1462M2370 1462L2371 1463L2370 1462M2209 1463L2210 1464L2209 1463M2208 1464L2209 1465L2208 1464M1963 1465L1964 1466L1963 1465M2280 1465L2280 1468L2281 1468L2280 1465M1961 1466L1962 1467L1961 1466M2367 1469L2368 1470L2367 1469M1954 1470L1955 1471L1954 1470M2201 1470L2202 1471L2201 1470M1952 1471L1953 1472L1952 1471M2200 1471L2201 1472L2200 1471M2366 1471L2367 1472L2366 1471M1950 1472L1951 1473L1950 1472M2199 1472L2200 1473L2199 1472M2198 1473L2199 1474L2198 1473M1397 1476L1398 1477L1397 1476M1943 1476L1944 1477L1943 1476M1941 1477L1942 1478L1941 1477M2281.33 1478.67L2281.67 1479.33L2281.33 1478.67M1395 1479L1396 1480L1395 1479M2191 1479L2192 1480L2191 1479M2190 1480L2191 1481L2190 1480M2362 1480L2363 1481L2362 1480M1393 1482L1394 1483L1393 1482M1932 1482L1933 1483L1932 1482M2361 1482L2362 1483L2361 1482M1930 1483L1931 1484L1930 1483M1392 1484L1393 1485L1392 1484M2183 1486L2184 1487L2183 1486M2182 1487L2183 1488L2182 1487M1921 1488L1922 1489L1921 1488M1389 1489L1390 1490L1389 1489M1919 1489L1920 1490L1919 1489M2282.33 1489.67L2282.67 1490.33L2282.33 1489.67M1917 1490L1918 1491L1917 1490M1915 1491L1916 1492L1915 1491M2175 1493L2176 1494L2175 1493M2174 1494L2175 1495L2174 1494M1385 1496L1386 1497L1385 1496M2354 1496L2355 1497L2354 1496M1384 1498L1385 1499L1384 1498M2353 1498L2354 1499L2353 1498M2168 1499L2169 1500L2168 1499M2283.33 1499.67L2283.67 1500.33L2283.33 1499.67M1383 1500L1384 1501L1383 1500M2167 1500L2168 1501L2167 1500M2352 1500L2353 1501L2352 1500M1896 1501L1897 1502L1896 1501M1894 1502L1895 1503L1894 1502M2351 1502L2352 1503L2351 1502M1892 1503L1893 1504L1892 1503M1890 1504L1891 1505L1890 1504M2162 1504L2163 1505L2162 1504M1888 1505L1889 1506L1888 1505M2161 1505L2162 1506L2161 1505M2284 1508L2285 1509L2284 1508M2155 1510L2156 1511L2155 1510M1377 1512L1378 1513L1377 1512M2345 1513L2346 1514L2345 1513M1868 1515L1869 1516L1868 1515M2149 1515L2150 1516L2149 1515M1866 1516L1867 1517L1866 1516M2285 1516L2286 1517L2285 1516M1864 1517L1865 1518L1864 1517M1862 1518L1863 1519L1862 1518M1860 1519L1861 1520L1860 1519M1858 1520L1859 1521L1858 1520M2143 1520L2144 1521L2143 1520M2341 1520L2342 1521L2341 1520M1373 1521L1374 1522L1373 1521M1856 1521L1857 1522L1856 1521M1854 1522L1855 1523L1854 1522M2286 1523L2287 1524L2286 1523M2137 1525L2138 1526L2137 1525M1371 1526L1372 1527L1371 1526M2132 1529L2133 1530L2132 1529M2287 1530L2288 1531L2287 1530M2335 1530L2336 1531L2335 1530M1833 1532L1834 1533L1833 1532M2127 1533L2128 1534L2127 1533M1367 1538L1368 1539L1367 1538M1820 1538L1821 1539L1820 1538M1818 1539L1819 1540L1818 1539M2117 1541L2118 1542L2117 1541M2112 1545L2113 1546L2112 1545M1796 1549L1797 1550L1796 1549M2323 1549L2324 1550L2323 1549M2103 1552L2104 1553L2103 1552M1363 1555L1364 1556L1363 1555M2094 1559L2095 1560L2094 1559M1761 1564L1762 1565L1761 1564M1362 1565L1363 1566L1362 1565M1749 1569L1750 1570L1749 1569M1744 1571L1745 1572L1744 1571M1739 1573L1740 1574L1739 1573M1362 1574L1363 1575L1362 1574M1734 1575L1735 1576L1734 1575M1721 1580L1722 1581L1721 1580M1363 1583L1364 1584L1363 1583M2290 1593L2291 1594L2290 1593M1366 1594L1367 1595L1366 1594M1680 1595L1681 1596L1680 1595M2043 1597L2044 1598L2043 1597M1644 1607L1645 1608L1644 1607M2278 1607L2279 1608L2278 1607M2026 1609L2027 1610L2026 1609M1385 1619L1386 1620L1385 1619M2265 1621L2266 1622L2265 1621z"/>
<path style="fill:#30aacf; stroke:none;" d="M1161 1838.42C1137.83 1841.47 1116.5 1847.29 1098 1862.46C1050.26 1901.6 1046.43 1980.09 1090.17 2023.83C1115.56 2049.22 1152.06 2058.67 1187 2053.71C1199.79 2051.9 1212.84 2047.5 1224 2040.99C1303.46 1994.6 1289.61 1869.02 1201 1842.72C1188.6 1839.04 1173.89 1836.73 1161 1838.42M1818 1934L1705 1934L1705 1960L1706.18 1970.4L1723 1972L1771 1972C1765.41 1982.48 1760.9 1992.03 1751 1999.39C1743.11 2005.26 1732.83 2008.74 1723 2008.99C1700.43 2009.54 1679.61 2001.49 1668.04 1981C1648.15 1945.77 1665.28 1891.4 1709 1887.17C1720.65 1886.04 1734.26 1887.85 1744 1894.79C1748.64 1898.09 1752.78 1906.14 1758.18 1907.68C1774.17 1912.23 1797.33 1908 1814 1908C1799.02 1843.22 1716.26 1822.12 1662 1850.89C1622.45 1871.86 1604.02 1915.55 1608.17 1959C1610.45 1982.87 1619.9 2006.82 1637.04 2023.96C1675.49 2062.42 1746.22 2065.23 1787 2028.83C1800.43 2016.84 1814.48 1999.34 1817.67 1981C1820.26 1966.15 1818 1949.07 1818 1934M824 1841L824 1883L880 1883L881 2053L932 2053L932 1883L988 1883L988 1841L824 1841M1344 1841C1346.29 1853.83 1355.97 1866.43 1361.75 1878C1378.71 1911.91 1401.81 1945.52 1415.05 1981C1418.08 1989.13 1417 1998.49 1417 2007L1417 2053L1468 2053L1468 2006L1468.64 1983L1488.14 1945L1524.25 1875L1541 1841L1501 1841C1496.29 1841 1488.72 1839.56 1484.39 1841.6C1478.76 1844.26 1475.19 1858.54 1472.69 1864C1462.79 1885.62 1452.13 1907.04 1443 1929L1413.86 1867L1401.36 1842.03L1385 1841L1344 1841M1887 2053L1941 2053C1943.02 2044.28 1947.2 2023.76 1953.7 2017.6C1957.37 2014.13 1967.29 2016 1972 2016L2015 2016C2019.62 2016 2027.55 2014.31 2031.58 2017.02C2041.1 2023.44 2036.14 2047.36 2046.42 2052.4C2050.44 2054.36 2057.61 2053 2062 2053L2099 2053L2081.69 2003L2045.34 1902L2029.81 1859L2023.16 1842.6L2010 1841L1977 1841L1963.7 1842.03L1957 1858L1942.31 1899L1887 2053M2177 1841L2177 2000L2177 2039C2177 2042.32 2175.65 2049.63 2178.6 2051.97C2184.13 2056.35 2203.03 2053 2210 2053L2296 2053L2296 2014L2248 2014L2230.6 2012.4L2229 2000L2229 1969L2229 1841L2177 1841M2362 2053L2416 2053C2418.02 2044.27 2421.75 2023.6 2428.51 2017.6C2432.89 2013.71 2444.55 2016 2450 2016L2508 2016L2516.33 2042L2520.7 2051.97L2535 2053L2574 2053L2554.69 1998L2519.42 1900L2505 1860L2498.16 1842.6L2484 1841L2453 1841L2439.42 1841.6L2432.66 1856L2418.95 1894L2379.31 2004L2362 2053M2641 1841C2644.52 1850.28 2651.84 1858.75 2657.33 1867L2690.67 1917C2695.15 1923.73 2708.53 1937.43 2708.6 1945.58C2708.67 1953.88 2695.43 1968.02 2691.05 1975C2680.81 1991.33 2670.6 2007.69 2660.32 2024C2654.5 2033.23 2646.86 2042.79 2643 2053L2682 2053L2699.67 2052.4L2711.4 2035L2739 1988L2769.67 2035L2783.09 2052.4L2801 2053L2841 2053C2837.35 2043.37 2829.7 2034.55 2824 2026L2791.33 1977C2786.77 1970.15 2773.33 1956.36 2773.52 1948C2773.72 1939.29 2786.03 1926.3 2790.58 1919C2801.42 1901.6 2812.58 1884.4 2823.42 1867C2828.64 1858.63 2835.5 1850.24 2839 1841L2799 1841L2781.38 1841.6L2770.42 1858L2744 1905L2713.67 1860L2700.67 1842.03L2683 1841L2641 1841M2906 1841L2923.74 1877L2960.26 1948L2978.3 1983L2979 2006L2979 2053L3030 2053L3030 2006C3030 1998.82 3028.58 1989.86 3030.97 1983C3036.45 1967.21 3046.74 1951.7 3054.69 1937C3063.6 1920.53 3071.23 1903.32 3080.42 1887C3087.95 1873.65 3100.31 1856.08 3103 1841L3063 1841L3046.39 1842.03L3034.14 1866L3006 1929L3004 1929C2998.78 1907.03 2984.43 1884.43 2974.78 1864C2972.05 1858.21 2969.1 1845.57 2963.61 1842.03C2959.63 1839.46 2951.56 1841 2947 1841L2906 1841z"/>
<path style="fill:#01435b; stroke:none;" d="M1162 1885.43C1150.61 1886.98 1139.77 1890.39 1131 1898.18C1090.31 1934.37 1117.4 2014.79 1175 2007.71C1247.22 1998.84 1236.47 1875.29 1162 1885.43z"/>
<path style="fill:#4c4e93; stroke:none;" d="M1369 1892L1370 1893L1369 1892M1514 1893L1515 1894L1514 1893M2418 1895L2419 1896L2418 1895M2804 1896L2805 1897L2804 1896M1070 1897L1071 1898L1070 1897M1205 1898L1206 1899L1205 1898M1206 1899L1207 1900L1206 1899z"/>
<path style="fill:#01435b; stroke:none;" d="M2467 1899L2442 1976L2494 1976L2477 1925L2467 1899z"/>
<path style="fill:#4c4e93; stroke:none;" d="M2746 1899L2747 1900L2746 1899z"/>
<path style="fill:#01435b; stroke:none;" d="M1992 1900L1967 1976L2019 1976L2000.67 1921L1992 1900z"/>
<path style="fill:#4c4e93; stroke:none;" d="M1124 1905L1125 1906L1124 1905M1452 1908L1453 1909L1452 1908M1758 1908L1758 1909L1813 1909L1795 1908L1758 1908M2472 1912L2473 1913L2472 1912M1119 1913L1120 1914L1119 1913M3066 1913L3067 1914L3066 1913M1217 1914L1218 1915L1217 1914M1272 1914L1273 1915L1272 1914M1667 1914L1668 1915L1667 1914M1118 1915L1119 1916L1118 1915M1611 1915L1612 1916L1611 1915M2473 1915L2474 1916L2473 1915M2792 1915L2793 1916L2792 1915M2051 1919L2052 1920L2051 1919M1116 1920L1117 1921L1116 1920M1500 1920L1501 1921L1500 1920M1384 1921L1385 1922L1384 1921M1446 1921L1447 1922L1446 1921M2787 1923L2788 1924L2787 1923M1061 1924L1062 1925L1061 1924M1609 1924L1610 1925L1609 1924M3007 1924L3008 1925L3007 1924M2528 1925L2529 1926L2528 1925M1932 1926L1933 1927L1932 1926M3003 1926L3004 1927L3003 1926M1114 1927L1115 1928L1114 1927M1275 1928L1276 1929L1275 1928M2950 1928L2951 1929L2950 1928M1222 1929L1223 1930L1222 1929M2055 1930L2056 1931L2055 1930M2951 1930L2952 1931L2951 1930M1608 1931L1609 1932L1608 1931M2405 1931L2406 1932L2405 1931M1113 1932L1114 1933L1113 1932M1661 1932L1662 1933L1661 1932M2780 1934L2781 1935L2780 1934M2532 1936L2533 1937L2532 1936M1276 1937L1277 1938L1276 1937M1928 1937L1929 1938L1928 1937M2006 1938L2007 1939L2006 1938M3052 1940L3053 1941L3052 1940M1660.33 1941.67L1660.67 1942.33L1660.33 1941.67M2007 1941L2008 1942L2007 1941M2059 1941L2060 1942L2059 1941M2401 1942L2402 1943L2401 1942M2775 1942L2776 1943L2775 1942M3051 1942L3052 1943L3051 1942M1112 1943L1112 1950L1113 1950L1112 1943M2008 1944L2009 1945L2008 1944M2060 1944L2061 1945L2060 1944M1059 1945L1059 1948L1060 1948L1059 1945M2400 1945L2401 1946L2400 1945M1397 1946L1398 1947L1397 1946M1486 1947L1487 1948L1486 1947M1976 1947L1977 1948L1976 1947M2009 1947L2010 1948L2009 1947M2536 1947L2537 1948L2536 1947M1398 1948L1399 1949L1398 1948M1924 1948L1925 1949L1924 1948M1485 1949L1486 1950L1485 1949M1399 1950L1400 1951L1399 1950M1975 1950L1976 1951L1975 1950M2010 1950L2011 1951L2010 1950M2537 1950L2538 1951L2537 1950M2773 1950L2774 1951L2773 1950M1484 1951L1485 1952L1484 1951M1400 1952L1401 1953L1400 1952M1660.33 1952.67L1660.67 1953.33L1660.33 1952.67M2705 1952L2706 1953L2705 1952M1974 1953L1975 1954L1974 1953M2011 1953L2012 1954L2011 1953M2397 1953L2398 1954L2397 1953M2775 1953L2776 1954L2775 1953M2963 1953L2964 1954L2963 1953M1276 1955L1277 1956L1276 1955M2064 1955L2065 1956L2064 1955M2703 1955L2704 1956L2703 1955M2964 1955L2965 1956L2964 1955M1973 1956L1974 1957L1973 1956M2396 1956L2397 1957L2396 1956M2777 1956L2778 1957L2777 1956M1223 1957L1224 1958L1223 1957M2965 1957L2966 1958L2965 1957M1920 1959L1921 1960L1920 1959M1972 1959L1973 1960L1972 1959M2779 1959L2780 1960L2779 1959M2966 1959L2967 1960L2966 1959M1113 1960L1114 1961L1113 1960M2700 1960L2701 1961L2700 1960M1608 1961L1609 1962L1608 1961M2541 1961L2542 1962L2541 1961M2967 1961L2968 1962L2967 1961M1060 1962L1061 1963L1060 1962M1919 1962L1920 1963L1919 1962M1971 1962L1972 1963L1971 1962M2489 1962L2490 1963L2489 1962M2781 1962L2782 1963L2781 1962M1222 1963L1223 1964L1222 1963M2698 1963L2699 1964L2698 1963M1275 1964L1276 1965L1275 1964M1114 1965L1115 1966L1114 1965M1970 1965L1971 1966L1970 1965M2490 1965L2491 1966L2490 1965M2783 1965L2784 1966L2783 1965M3039 1965L3040 1966L3039 1965M2068 1966L2069 1967L2068 1966M2392 1967L2393 1968L2392 1967M3038 1967L3039 1968L3038 1967M1061 1968L1062 1969L1061 1968M1609 1968L1610 1969L1609 1968M1969 1968L1970 1969L1969 1968M2491 1968L2492 1969L2491 1968M2785 1968L2786 1969L2785 1968M2069 1969L2070 1970L2069 1969M3037 1969L3038 1970L3037 1969M1274 1970L1275 1971L1274 1970M1663 1970L1664 1971L1663 1970M1705 1970L1706 1971L1705 1970M1220 1971L1221 1972L1220 1971M1968 1971L1969 1972L1968 1971M2492 1971L2493 1972L2492 1971M2693 1971L2694 1972L2693 1971M2787 1971L2788 1972L2787 1971M3036 1971L3037 1972L3036 1971M1116 1972L1117 1973L1116 1972M1473 1972L1474 1973L1473 1972M1770 1972L1771 1973L1770 1972M2545 1972L2546 1973L2545 1972M1411 1973L1412 1974L1411 1973M1610 1973L1611 1974L1610 1973M1664 1973L1665 1974L1664 1973M1915 1973L1916 1974L1915 1973M1273 1974L1274 1975L1273 1974M1472 1974L1473 1975L1472 1974M1967 1974L1968 1975L1967 1974M2493 1974L2494 1975L2493 1974M2789 1974L2790 1975L2789 1974M1412 1975L1413 1976L1412 1975M2546 1975L2547 1976L2546 1975M1218 1976L1219 1977L1218 1976M1471 1976L1472 1977L1471 1976M1914 1976L1915 1977L1914 1976M1118 1977L1119 1978L1118 1977M1413 1977L1414 1978L1413 1977M1768 1977L1769 1978L1768 1977M2072 1977L2073 1978L2072 1977M2791 1977L2792 1978L2791 1977M1217 1978L1218 1979L1217 1978M1272 1978L1273 1979L1272 1978M1470 1978L1471 1979L1470 1978M1666 1978L1667 1979L1666 1978M2388 1978L2389 1979L2388 1978M1119 1979L1120 1980L1119 1979M1414 1979L1415 1980L1414 1979M2688 1979L2689 1980L2688 1979M1064 1980L1065 1981L1064 1980M1216 1980L1217 1981L1216 1980M1469 1980L1470 1981L1469 1980M1667 1980L1668 1981L1667 1980M2073 1980L2074 1981L2073 1980M2793 1980L2794 1981L2793 1980M2977 1980L2978 1981L2977 1980M1120 1981L1121 1982L1120 1981M1415 1981L1416 1982L1415 1981M1612 1981L1613 1982L1612 1981M1766 1981L1767 1982L1766 1981M2387 1981L2388 1982L2387 1981M1468 1982L1469 1983L1468 1982M1817 1982L1818 1983L1817 1982M2686 1982L2687 1983L2686 1982M2978 1982L2979 1983L2978 1982M1065 1983L1066 1984L1065 1983M1765 1983L1766 1984L1765 1983M2549 1983L2550 1984L2549 1983M2795 1983L2796 1984L2795 1983M3030 1983L3030 2053L3031 2053L3031 2005L3030 1983M1122 1984L1123 1985L1122 1984M1613 1984L1614 1985L1613 1984M1911 1984L1912 1985L1911 1984M1213 1985L1214 1986L1213 1985M1670 1985L1671 1986L1670 1985M1066 1986L1067 1987L1066 1986M1416 1986L1416 2053L1417 2053L1417 2007L1416 1986M2550 1986L2551 1987L2550 1986M2797 1986L2798 1987L2797 1986M1124 1987L1125 1988L1124 1987M1269 1987L1270 1988L1269 1987M1614 1987L1615 1988L1614 1987M1815 1987L1816 1988L1815 1987M1910 1987L1911 1988L1910 1987M2683 1987L2684 1988L2683 1987M1762 1988L1763 1989L1762 1988M2076 1988L2077 1989L2076 1988M2738 1988L2739 1989L2738 1988M1673 1989L1674 1990L1673 1989M1761 1989L1762 1990L1761 1989M2384 1989L2385 1990L2384 1989M2739 1989L2740 1990L2739 1989M2799 1989L2800 1990L2799 1989M1209 1990L1210 1991L1209 1990M1814 1990L1815 1991L1814 1990M2681 1990L2682 1991L2681 1990M1068 1991L1069 1992L1068 1991M1208 1991L1209 1992L1208 1991M2077 1991L2078 1992L2077 1991M1207 1992L1208 1993L1207 1992M1267 1992L1268 1993L1267 1992M1616 1992L1617 1993L1616 1992M2383 1992L2384 1993L2383 1992M2741 1992L2742 1993L2741 1992M2801 1992L2802 1993L2801 1992M1069 1993L1070 1994L1069 1993M1206 1993L1207 1994L1206 1993M2735 1993L2736 1994L2735 1993M1205 1994L1206 1995L1205 1994M1266 1994L1267 1995L1266 1994M2078 1994L2079 1995L2078 1994M2553 1994L2554 1995L2553 1994M1070 1995L1071 1996L1070 1995M1204 1995L1205 1996L1204 1995M1907 1995L1908 1996L1907 1995M2678 1995L2679 1996L2678 1995M2734 1995L2735 1996L2734 1995M2743 1995L2744 1996L2743 1995M2803 1995L2804 1996L2803 1995M1265 1996L1266 1997L1265 1996M1071 1997L1072 1998L1071 1997M1134 1997L1135 1998L1134 1997M1681 1997L1682 1998L1681 1997M2554 1997L2555 1998L2554 1997M1264 1998L1265 1999L1264 1998M1906 1998L1907 1999L1906 1998M2676 1998L2677 1999L2676 1998M2745 1998L2746 1999L2745 1998M2805 1998L2806 1999L2805 1998M1072 1999L1073 2000L1072 1999M1199 1999L1200 2000L1199 1999M1684 1999L1685 2000L1684 1999M1751 1999L1752 2000L1751 1999M2080 1999L2081 2000L2080 1999M1197 2000L1198 2001L1197 2000M1263 2000L1264 2001L1263 2000M2380 2000L2381 2001L2380 2000M2555 2000L2556 2001L2555 2000M2731 2000L2732 2001L2731 2000M1073 2001L1074 2002L1073 2001M1140 2001L1141 2002L1140 2001M1687 2001L1688 2002L1687 2001M1905 2001L1906 2002L1905 2001M2747 2001L2748 2002L2747 2001M2807 2001L2808 2002L2807 2001M1142 2002L1143 2003L1142 2002M1262 2002L1263 2003L1262 2002M1689 2002L1690 2003L1689 2002M1746 2002L1747 2003L1746 2002M1808 2002L1809 2003L1808 2002M2081 2002L2082 2003L2081 2002M1144 2003L1145 2004L1144 2003M1691 2003L1692 2004L1691 2003M2379 2003L2380 2004L2379 2003M1189 2004L1190 2005L1189 2004M1622 2004L1623 2005L1622 2004M1742 2004L1743 2005L1742 2004M2749 2004L2750 2005L2749 2004M2809 2004L2810 2005L2809 2004M1149 2005L1150 2006L1149 2005M1186 2005L1187 2006L1186 2005M1260 2005L1261 2006L1260 2005M1696 2005L1697 2006L1696 2005M2082 2005L2083 2006L2082 2005M2557 2005L2558 2006L2557 2005M2728 2005L2729 2006L2728 2005M1153 2006L1154 2007L1153 2006M1182 2006L1183 2007L1182 2006M1699 2006L1700 2007L1699 2006M1737 2006L1738 2007L1737 2006M1903 2006L1904 2007L1903 2006M2378 2006L2379 2007L2378 2006M2671 2006L2672 2007L2671 2006M1158 2007L1158 2008L1161 2008L1158 2007M1176.67 2007.33L1177.33 2007.67L1176.67 2007.33M1624 2007L1625 2008L1624 2007M1703 2007L1704 2008L1703 2007M1732.67 2007.33L1733.33 2007.67L1732.67 2007.33M1805 2007L1806 2008L1805 2007M2727 2007L2728 2008L2727 2007M2751 2007L2752 2008L2751 2007M2811 2007L2812 2008L2811 2007M1709.67 2008.33L1710.33 2008.67L1709.67 2008.33M1726 2008L1726 2009L1729 2009L1726 2008M2558 2008L2559 2009L2558 2008M1078 2009L1079 2010L1078 2009M1902 2009L1903 2010L1902 2009M2669 2009L2670 2010L2669 2009M1803 2010L1804 2011L1803 2010M2725 2010L2726 2011L2725 2010M2753 2010L2754 2011L2753 2010M2813 2010L2814 2011L2813 2010M1256 2011L1257 2012L1256 2011M2376 2011L2377 2012L2376 2011M2559 2011L2560 2012L2559 2011M1901 2012L1902 2013L1901 2012M2724 2012L2725 2013L2724 2012M1081 2013L1082 2014L1081 2013M1628 2013L1629 2014L1628 2013M2085 2013L2086 2014L2085 2013M2230 2013L2230 2014L2296 2014L2275 2013L2230 2013M2755 2013L2756 2014L2755 2013M2815 2013L2816 2014L2815 2013M1800 2014L1801 2015L1800 2014M2296 2014L2296 2053L2297 2053C2297 2041.83 2300.31 2024.27 2296 2014M2375 2014L2376 2015L2375 2014M2666 2014L2667 2015L2666 2014M1253 2015L1254 2016L1253 2015M1987 2015L1988 2016L1987 2015M2024.67 2015.33L2025.33 2015.67L2024.67 2015.33M2437 2015L2438 2016L2437 2015M2474.67 2015.33L2475.33 2015.67L2474.67 2015.33M2086 2016L2087 2017L2086 2016M2507 2016L2508 2017L2507 2016M2561 2016L2562 2017L2561 2016M2757 2016L2758 2017L2757 2016M2817 2016L2818 2017L2817 2016M1899 2017L1900 2018L1899 2017M2374 2017L2375 2018L2374 2017M2427 2017L2428 2018L2427 2017M2664 2017L2665 2018L2664 2017M2721 2017L2722 2018L2721 2017M880 2018L880 2053L881 2053L880 2018M1085 2018L1086 2019L1085 2018M1632 2018L1633 2019L1632 2018M1952 2018L1953 2019L1952 2018M2033 2018L2034 2019L2033 2018M1086 2019L1087 2020L1086 2019M2087 2019L2088 2020L2087 2019M2508 2019L2509 2020L2508 2019M2562 2019L2563 2020L2562 2019M2759 2019L2760 2020L2759 2019M2819 2019L2820 2020L2819 2019M1087 2020L1088 2021L1087 2020M1898 2020L1899 2021L1898 2020M2373 2020L2374 2021L2373 2020M2426 2020L2427 2021L2426 2020M1248 2021L1249 2022L1248 2021M1794 2021L1795 2022L1794 2021M1951 2021L1952 2022L1951 2021M2034 2021L2035 2022L2034 2021M1247 2022L1248 2023L1247 2022M1793 2022L1794 2023L1793 2022M2372 2022L2373 2023L2372 2022M2509 2022L2510 2023L2509 2022M2563 2022L2564 2023L2563 2022M2661 2022L2662 2023L2661 2022M2718 2022L2719 2023L2718 2022M2761 2022L2762 2023L2761 2022M2821 2022L2822 2023L2821 2022M1246 2023L1247 2024L1246 2023M1792 2023L1793 2024L1792 2023M1897 2023L1898 2024L1897 2023M2425 2023L2426 2024L2425 2023M1245 2024L1246 2025L1245 2024M1791 2024L1792 2025L1791 2024M1950 2024L1951 2025L1950 2024M2035 2024L2036 2025L2035 2024M2089 2024L2090 2025L2089 2024M2717 2024L2718 2025L2717 2024M1244 2025L1245 2026L1244 2025M1790 2025L1791 2026L1790 2025M2371 2025L2372 2026L2371 2025M2564 2025L2565 2026L2564 2025M2659 2025L2660 2026L2659 2025M2763 2025L2764 2026L2763 2025M2823 2025L2824 2026L2823 2025M1093 2026L1094 2027L1093 2026M1243 2026L1244 2027L1243 2026M1789 2026L1790 2027L1789 2026M1896 2026L1897 2027L1896 2026M2424 2026L2425 2027L2424 2026M1094 2027L1095 2028L1094 2027M1242 2027L1243 2028L1242 2027M1949 2027L1950 2028L1949 2027M2036 2027L2037 2028L2036 2027M2090 2027L2091 2028L2090 2027M2715 2027L2716 2028L2715 2027M1095 2028L1096 2029L1095 2028M1642 2028L1643 2029L1642 2028M1895 2028L1896 2029L1895 2028M2370 2028L2371 2029L2370 2028M2657 2028L2658 2029L2657 2028M2765 2028L2766 2029L2765 2028M2825 2028L2826 2029L2825 2028M1096 2029L1097 2030L1096 2029M1643 2029L1644 2030L1643 2029M2423 2029L2424 2030L2423 2029M2714 2029L2715 2030L2714 2029M1644 2030L1645 2031L1644 2030M1948 2030L1949 2031L1948 2030M2037 2030L2038 2031L2037 2030M2091 2030L2092 2031L2091 2030M2512 2030L2513 2031L2512 2030M2566 2030L2567 2031L2566 2030M2656 2030L2657 2031L2656 2030M1237 2031L1238 2032L1237 2031M1783 2031L1784 2032L1783 2031M1894 2031L1895 2032L1894 2031M2369 2031L2370 2032L2369 2031M2767 2031L2768 2032L2767 2031M2827 2031L2828 2032L2827 2031M1100 2032L1101 2033L1100 2032M1236 2032L1237 2033L1236 2032M1782 2032L1783 2033L1782 2032M2422 2032L2423 2033L2422 2032M1101 2033L1102 2034L1101 2033M1648 2033L1649 2034L1648 2033M1947 2033L1948 2034L1947 2033M2038 2033L2039 2034L2038 2033M2513 2033L2514 2034L2513 2033M2567 2033L2568 2034L2567 2033M2654 2033L2655 2034L2654 2033M1779 2034L1780 2035L1779 2034M1893 2034L1894 2035L1893 2034M2711 2034L2712 2035L2711 2034M2769 2034L2770 2035L2769 2034M2829 2034L2830 2035L2829 2034M1104 2035L1105 2036L1104 2035M1232 2035L1233 2036L1232 2035M1651 2035L1652 2036L1651 2035M1778 2035L1779 2036L1778 2035M2093 2035L2094 2036L2093 2035M2421 2035L2422 2036L2421 2035M1776 2036L1777 2037L1776 2036M1946 2036L1947 2037L1946 2036M2039 2036L2040 2037L2039 2036M2367 2036L2368 2037L2367 2036M2514 2036L2515 2037L2514 2036M2568 2036L2569 2037L2568 2036M2652 2036L2653 2037L2652 2036M2710 2036L2711 2037L2710 2036M1107 2037L1108 2038L1107 2037M1229 2037L1230 2038L1229 2037M1654 2037L1655 2038L1654 2037M1775 2037L1776 2038L1775 2037M1892 2037L1893 2038L1892 2037M2771 2037L2772 2038L2771 2037M2831 2037L2832 2038L2831 2037M1773 2038L1774 2039L1773 2038M2094 2038L2095 2039L2094 2038M2420 2038L2421 2039L2420 2038M2651 2038L2652 2039L2651 2038M1110 2039L1111 2040L1110 2039M1226 2039L1227 2040L1226 2039M1657 2039L1658 2040L1657 2039M1945 2039L1946 2040L1945 2039M2040 2039L2041 2040L2040 2039M2366 2039L2367 2040L2366 2039M2515 2039L2516 2040L2515 2039M2569 2039L2570 2040L2569 2039M2708 2039L2709 2040L2708 2039M1112 2040L1113 2041L1112 2040M1224 2040L1225 2041L1224 2040M1770 2040L1771 2041L1770 2040M2773 2040L2774 2041L2773 2040M2833 2040L2834 2041L2833 2040M1768 2041L1769 2042L1768 2041M2095 2041L2096 2042L2095 2041M2419 2041L2420 2042L2419 2041M2570 2041L2571 2042L2570 2041M2649 2041L2650 2042L2649 2041M2707 2041L2708 2042L2707 2041M1766 2042L1767 2043L1766 2042M1890 2042L1891 2043L1890 2042M2041 2042L2042 2043L2041 2042M2365 2042L2366 2043L2365 2042M2516 2042L2517 2043L2516 2042M2775 2043L2776 2044L2775 2043M2835 2043L2836 2044L2835 2043M1119 2044L1120 2045L1119 2044M1763 2044L1764 2045L1763 2044M1943 2044L1944 2045L1943 2044M2096 2044L2097 2045L2096 2044M2418 2044L2419 2045L2418 2044M2571 2044L2572 2045L2571 2044M2647 2044L2648 2045L2647 2044M1214 2045L1215 2046L1214 2045M1669 2045L1670 2046L1669 2045M1760 2045L1761 2046L1760 2045M1889 2045L1890 2046L1889 2045M2042 2045L2043 2046L2042 2045M2364 2045L2365 2046L2364 2045M2517 2045L2518 2046L2517 2045M1124 2046L1125 2047L1124 2046M1212 2046L1213 2047L1212 2046M1671 2046L1672 2047L1671 2046M1758 2046L1759 2047L1758 2046M2097 2046L2098 2047L2097 2046M2646 2046L2647 2047L2646 2046M2704 2046L2705 2047L2704 2046M2777 2046L2778 2047L2777 2046M2837 2046L2838 2047L2837 2046M1126 2047L1127 2048L1126 2047M1210 2047L1211 2048L1210 2047M1674 2047L1675 2048L1674 2047M1755 2047L1756 2048L1755 2047M1942 2047L1943 2048L1942 2047M2363 2047L2364 2048L2363 2047M2417 2047L2418 2048L2417 2047M2572 2047L2573 2048L2572 2047M1129 2048L1130 2049L1129 2048M1207 2048L1208 2049L1207 2048M1677 2048L1678 2049L1677 2048M1753 2048L1754 2049L1753 2048M1888 2048L1889 2049L1888 2048M2043 2048L2044 2049L2043 2048M2518 2048L2519 2049L2518 2048M2703 2048L2704 2049L2703 2048M1132 2049L1133 2050L1132 2049M1204 2049L1205 2050L1204 2049M1680 2049L1681 2050L1680 2049M1749.67 2049.33L1750.33 2049.67L1749.67 2049.33M2098 2049L2099 2050L2098 2049M2644 2049L2645 2050L2644 2049M2779 2049L2780 2050L2779 2049M2839 2049L2840 2050L2839 2049M1135 2050L1136 2051L1135 2050M1201 2050L1202 2051L1201 2050M1683.67 2050.33L1684.33 2050.67L1683.67 2050.33M1746 2050L1747 2051L1746 2050M1941 2050L1942 2051L1941 2050M2362 2050L2363 2051L2362 2050M2416 2050L2417 2051L2416 2050M2573 2050L2574 2051L2573 2050M1138 2051L1139 2052L1138 2051M1198 2051L1199 2052L1198 2051M1687.67 2051.33L1688.33 2051.67L1687.67 2051.33M1742.67 2051.33L1743.33 2051.67L1742.67 2051.33M1887 2051L1888 2052L1887 2051M2044 2051L2045 2052L2044 2051M2519 2051L2520 2052L2519 2051M2701 2051L2702 2052L2701 2051M1142.67 2052.33L1143.33 2052.67L1142.67 2052.33M1193.67 2052.33L1194.33 2052.67L1193.67 2052.33M1692.67 2052.33L1693.33 2052.67L1692.67 2052.33M1736 2052L1736 2053L1739 2053L1736 2052M2099 2052L2100 2053L2099 2052M2177 2052L2178 2053L2177 2052M2642 2052L2643 2053L2642 2052M2781 2052L2782 2053L2781 2052M1146 2053L1146 2054L1149 2054L1146 2053M1188 2053L1188 2054L1191 2054L1188 2053M1698 2053L1698 2054L1701 2054L1698 2053M1730.67 2053.33L1731.33 2053.67L1730.67 2053.33M1153 2054L1153 2055L1157 2055L1153 2054M1180 2054L1180 2055L1184 2055L1180 2054M1707 2054L1707 2055L1721 2055L1707 2054z"/>
</svg>
